<?xml version="1.0" encoding="utf-8"?>
<!-- Generator: Adobe Illustrator 16.0.0, SVG Export Plug-In . SVG Version: 6.00 Build 0)  -->
<!DOCTYPE svg PUBLIC "-//W3C//DTD SVG 1.1//EN" "http://www.w3.org/Graphics/SVG/1.1/DTD/svg11.dtd">
<svg version="1.1" id="Layer_1" xmlns="http://www.w3.org/2000/svg" xmlns:xlink="http://www.w3.org/1999/xlink" x="0px" y="0px"
	 width="247px" height="145px" viewBox="0 0 247 145" enable-background="new 0 0 247 145" xml:space="preserve">
<linearGradient id="SVGID_1_" gradientUnits="userSpaceOnUse" x1="0.0713" y1="78.0913" x2="246.8135" y2="78.0913">
	<stop  offset="0" style="stop-color:#A3A39F"/>
	<stop  offset="0.0695" style="stop-color:#B8B8B5"/>
	<stop  offset="0.1727" style="stop-color:#D0D0CE"/>
	<stop  offset="0.2795" style="stop-color:#E2E2E1"/>
	<stop  offset="0.3913" style="stop-color:#EDEDEB"/>
	<stop  offset="0.5161" style="stop-color:#F0F0EF"/>
	<stop  offset="0.6037" style="stop-color:#ECECEB"/>
	<stop  offset="0.6995" style="stop-color:#DEDEDE"/>
	<stop  offset="0.7991" style="stop-color:#C9C9C8"/>
	<stop  offset="0.9007" style="stop-color:#AAAAAA"/>
	<stop  offset="1" style="stop-color:#858585"/>
</linearGradient>
<path fill="url(#SVGID_1_)" d="M128.25,34.056c0.187-0.224,1.655-3.829,1.43-3.904c-0.228-0.072-2.5,2.042-2.748,2.167
	c-0.25,0.125-0.625,2.219,0.003,2.633C127.085,35.05,128.059,34.28,128.25,34.056z M125.558,39.338
	c0.124-0.065,0.515-0.358,0.428-0.486c-0.087-0.128-0.2-0.918-0.336-0.845C125.516,38.083,124.903,39.675,125.558,39.338z
	 M209.49,77.399c0.453,0.419,0.838,0.662,1.177,0.971c0.158,0.157,0.29,0.274,0.448,0.454c0.078,0.097,0.156,0.194,0.234,0.292
	c0.039,0.048,0.079,0.097,0.118,0.146c0.014,0.028,0.027,0.056,0.041,0.084c0.151,0.264,0.257,0.706,0.304,1.155
	c0.105,0.905,0.112,1.894-0.019,2.897c-0.06,0.505-0.113,1.017-0.128,1.575c-0.001,0.272,0.013,0.576,0.074,0.898
	c0.024,0.092,0.048,0.183,0.072,0.275c0.04,0.116,0.014,0.124,0.128,0.352c0.091,0.185,0.215,0.362,0.351,0.512
	c0.086,0.095,0.108,0.11,0.127,0.127c0.025,0.02,0.05,0.04,0.075,0.06c0.012,0.01,0.025,0.02,0.037,0.03
	c0.006,0.005,0.013,0.01,0.019,0.015c0.526,0.315,0.167,0.094,0.292,0.168c0.048,0.016,0.095,0.032,0.143,0.048l0.287,0.088
	c0.208,0.067,0.374,0.095,0.521,0.109c0.321,0.05,0.62,0.067,0.89,0.069c0.564,0.027,1.081-0.019,1.587-0.035
	c1.036-0.04,1.923-0.102,2.878-0.022c0.736,0.071,1.531,0.454,2.366,1.031c0.822,0.612,1.779,1.188,2.999,1.263
	c0.145,0.021,0.288,0.041,0.432,0.061c0.128,0.007,0.234,0.001,0.351,0.002c0.229-0.003,0.458-0.006,0.688-0.009
	c0.143-0.004,0.286-0.009,0.429-0.014c0.112-0.011,0.225-0.021,0.337-0.032c0.223-0.021,0.444-0.043,0.667-0.064
	c1.766-0.196,3.438-0.33,4.982-0.382c3.09-0.159,5.676-0.37,7.48-0.429c1.805-0.04,2.809-0.344,2.809-0.344
	c-0.03-0.666-0.043-0.936-0.073-1.602c0,0-1.028,0.07-2.827,0.19c-1.803,0.101-4.376,0.23-7.465,0.327
	c-1.544,0.077-3.22,0.078-4.994,0.022c-0.223-0.004-0.445-0.008-0.669-0.012c-0.112-0.001-0.226-0.003-0.338-0.005
	c-0.015,0-0.028,0-0.043-0.001c0.032,0-0.103,0,0.066-0.001c-0.007,0-0.015,0-0.022-0.001c-0.027-0.003-0.057-0.005-0.084-0.008
	c-0.057-0.005-0.113-0.009-0.17-0.014c-0.228-0.016-0.455-0.032-0.683-0.047c-0.113-0.008-0.236-0.011-0.339-0.024
	c-0.085-0.021-0.17-0.041-0.255-0.061c-0.17-0.032-0.34-0.064-0.511-0.097c-0.181-0.052-0.367-0.117-0.563-0.149
	c-0.397-0.067-0.812-0.168-1.262-0.304c-0.868-0.281-1.765-0.965-3.027-1.163c-1.015-0.182-2.142-0.257-3.133-0.316
	c-0.486-0.035-0.974-0.068-1.464-0.104c-0.242-0.012-0.45-0.046-0.633-0.078c-0.036-0.003-0.065-0.008-0.095-0.013
	c-0.037-0.153-0.087-0.319-0.12-0.519c-0.106-0.438-0.183-0.926-0.268-1.421c-0.189-0.993-0.188-2.013-0.391-3.079
	c-0.102-0.53-0.224-1.084-0.603-1.669c-0.055-0.079-0.071-0.129-0.163-0.228c-0.042-0.046-0.084-0.092-0.127-0.139
	c-0.084-0.092-0.169-0.184-0.254-0.275c-0.181-0.188-0.427-0.4-0.637-0.577c-0.426-0.333-0.898-0.617-1.185-0.854
	c-0.267-0.249-0.25-0.252-0.229-0.875c0.036-0.969,0.164-1.823,0.311-2.76c0.065-0.463,0.154-0.906,0.251-1.341l0.069-0.328
	c-0.007-0.04,0.067-0.206,0.099-0.282c0.068-0.123,0.18-0.309,0.314-0.474c0.535-0.674,1.21-1.276,1.799-1.948
	c0.286-0.349,0.606-0.669,0.735-1.22c0.056-0.476,0.037-0.852,0.04-1.28c-0.01-0.817-0.069-1.604-0.149-2.357
	c-0.098-0.752-0.221-1.475-0.469-2.141c-0.271-0.643-0.587-1.216-0.865-1.76c-0.568-1.083-1.042-2.035-1.38-2.842
	c-0.339-0.807-0.529-1.471-0.584-1.936c-0.012-0.233-0.027-0.413,0-0.532c0.016-0.12,0.026-0.182,0.026-0.182
	s-0.012,0.062-0.032,0.181c-0.034,0.119-0.024,0.299-0.022,0.535c0.042,0.47,0.208,1.146,0.518,1.969
	c0.31,0.823,0.753,1.797,1.282,2.899c0.258,0.554,0.553,1.133,0.79,1.764c0.199,0.632,0.285,1.341,0.343,2.079
	c0.04,0.741,0.058,1.517,0.028,2.317c-0.021,0.38-0.033,0.831-0.093,1.181c-0.068,0.272-0.362,0.609-0.644,0.902
	c-0.589,0.608-1.285,1.169-1.929,1.888c-0.162,0.182-0.315,0.371-0.47,0.647c-0.06,0.133-0.096,0.173-0.148,0.36
	c-0.032,0.114-0.064,0.228-0.097,0.342c-0.135,0.458-0.26,0.92-0.354,1.383c-0.208,0.904-0.417,1.936-0.512,2.892
	c-0.012,0.121-0.024,0.241-0.037,0.361c-0.006,0.061-0.012,0.121-0.018,0.181c0.005,0.166,0.023,0.208,0.041,0.319
	C209.001,76.852,209.281,77.198,209.49,77.399z M176.194,67.753c0.526,0.038,2.111-0.801,2.236-0.925
	c0.123-0.125,0.553-0.648-0.438-0.851C176.998,65.775,175.84,67.727,176.194,67.753z M246.766,91.344
	c-0.001,0,0.061-0.156-0.031-0.156c-0.554,0.091-1.432,0.017-2.463,0.452c-0.511,0.219-1.074,0.524-1.588,0.994
	c-0.516,0.458-0.966,1.107-1.249,1.819c-0.017,0.041-0.034,0.081-0.051,0.122c-0.007,0.017-0.013,0.032-0.022,0.047
	c-0.017,0.028-0.048,0.059-0.103,0.089c-0.11,0.061-0.289,0.088-0.497,0.129c-0.224,0.03-0.491,0.147-0.647,0.208
	c-0.181,0.067-0.324,0.113-0.56,0.152c-0.054,0.01-0.107,0.021-0.162,0.031c-0.023,0.007-0.053,0-0.082,0.006
	c-0.079-0.005-0.209-0.021-0.345-0.019c-0.274-0.001-0.521,0.054-0.761,0.109c-0.49,0.124-0.931,0.302-1.394,0.438
	c-0.436,0.152-0.909,0.239-1.402,0.32c-0.479,0.087-1.057,0.113-1.647,0.341c-0.043,0.018-0.087,0.036-0.131,0.054
	c-0.021,0.008-0.044,0.015-0.065,0.023c-0.042,0.018-0.09,0.025-0.134,0.037c-0.095,0.019-0.201,0.028-0.322,0.035
	c-0.242,0.009-0.569,0.002-0.932,0.087c-0.177,0.046-0.359,0.107-0.526,0.194c-0.164,0.079-0.358,0.218-0.451,0.286
	c-0.156,0.116-0.178,0.138-0.306,0.225c-0.115,0.075-0.229,0.149-0.345,0.224c-0.968,0.599-2.023,1.212-3.187,1.719
	c-1.161,0.507-2.432,0.923-3.721,1.371c-0.641,0.229-1.291,0.471-1.915,0.733c-0.321,0.12-0.525,0.226-1.004,0.439
	c-0.495,0.238-0.877,0.597-1.205,0.925c-0.626,0.696-0.906,1.424-1.193,2.017c-0.149,0.297-0.27,0.559-0.404,0.763
	c-0.031,0.036-0.063,0.071-0.095,0.107c-0.002,0.007-0.069,0.058-0.016,0.03l-0.059,0.056l-0.22,0.22
	c-0.136,0.148-0.284,0.275-0.423,0.416c-0.554,0.561-1.14,1.074-1.719,1.634c-0.29,0.295-0.557,0.569-0.823,0.973
	c-0.117,0.196-0.206,0.367-0.284,0.461c-0.098,0.117-0.226,0.235-0.366,0.349c-1.172,0.915-2.78,1.472-4.207,2.386
	c-1.314,0.799-2.996,1.05-4.705,1.122c-1.717,0.075-3.5-0.022-5.312-0.103c-1.814-0.087-3.666-0.184-5.55-0.242
	c-1.892-0.033-3.745-0.126-5.65-0.406c-0.749-0.104-1.5-0.239-2.253-0.376c0.394-0.473,0.795-0.933,1.176-1.424
	c1.342-1.736,2.579-3.594,3.694-5.519c1.116-1.926,2.101-3.923,2.948-5.944c0.829-2.025,1.514-4.071,2.059-6.083
	c0.56-2.008,0.935-3.993,1.211-5.886c0.065-0.474,0.129-0.941,0.19-1.402c0.043-0.462,0.089-0.919,0.132-1.368
	c0.02-0.223,0.048-0.444,0.062-0.666c0.012-0.225,0.023-0.447,0.038-0.667c0.025-0.441,0.047-0.874,0.072-1.296
	c0.004-0.406,0.013-0.805,0.02-1.192c0.002-0.195,0.009-0.388,0.01-0.577c0.001-0.047,0.001-0.095,0.002-0.143
	c0.001-0.023,0.001-0.047,0.002-0.07c0-0.034,0-0.068,0.001-0.102c-0.003-0.096-0.005-0.191-0.008-0.287
	c-0.021-0.762-0.03-1.486-0.065-2.165c-0.047-0.68-0.091-1.316-0.132-1.904c-0.051-0.591-0.126-1.14-0.18-1.634
	c-0.029-0.247-0.054-0.481-0.08-0.701c-0.024-0.223-0.063-0.408-0.088-0.593c-0.057-0.364-0.107-0.674-0.146-0.925
	c-0.043-0.276-0.075-0.479-0.097-0.607c-0.004-0.052-0.011-0.106-0.027-0.162c-0.391-1.54-0.579-2.33-0.343-2.537
	c0.495-0.439,1.253,0.277,2.259,1.25c3.665,4.179,4.529,9.179,4.888,14.17c0.017,0.214,0.031,0.431,0.046,0.647
	c0,0.012,0.001,0.023,0.001,0.033c0.113,1.997,0.091,4.133-0.068,6.315c-0.139,0.723-0.728,2.701-1.139,3.049
	c-0.301,0.253-0.042,2.831,0.156,4.069c-0.215,1.037-0.518,1.789-0.792,2.789c-0.122,0.202-0.625,0.735-0.533,0.861
	c0.019,0.027,0.125,0.668,0.05,1.093c-0.145,0.84-0.574,1.822-0.81,2.421c-0.087,0.185-1.214,1.073-1.399,1.298
	c-0.189,0.229-1.603,3.873-1.373,3.94c0.236,0.07,2.523-2.109,2.774-2.24c0.176-0.091,0.317-2.621,0.6-3.317
	c0.281-0.697,0.148-0.751,0.409-1.521c0.172-0.478,0.3-0.677,0.299-0.677c0.119-0.146,0.062-0.767,0.143-1.181
	c0.28-0.906,0.547-1.851,0.794-2.828c0-0.002,0-0.002,0-0.004c0.252-1.035,0.934-2.776,0.976-4.624c0,0,0-0.002,0-0.003
	c0.672-3.888,1.022-8.028,0.921-11.986c0.003-1.786-0.144-3.612-0.457-5.436c0-0.002,0-0.002,0-0.002
	c-0.438-2.539-1.198-5.073-2.321-7.483c-0.033-0.083-0.073-0.172-0.128-0.271c-0.76-1.371-1.617-2.483-2.717-2.634
	c-1.807-0.25-2.681,0.724-3.158,1.676c-0.52-0.744-2.07-1.389-3.469-1.244c-0.866,0.09-1.682,0.617-2.193,1.387
	c-0.988-0.768-2.727-0.87-4.127-0.578c-0.417,0.087-0.794,0.189-1.136,0.305c-0.247-0.055-0.479-0.07-0.64-0.033
	c-0.421,0.095-0.862,0.443-1.092,0.923c-0.846,0.663-1.175,1.463-1.158,2.237c-2.158,1.193-3.555,1.354-4.794,1.067
	c-0.494-0.113-1.157-0.854-1.15-2.021c0.004-0.77,0.113-1.104,0.024-1.152c-0.242-0.129-1.133,0.061-1.469,0.125
	c-1.207,0.237-4.958,1.14-7.733,1.88c-1.607-0.436-3.469-0.853-4.119-1.044c0.892-0.709,0.595-1.798,0.131-1.864
	c-0.394-0.056-1.282,0.038-1.954,0.525c-0.669,0.487-1.228,0.997-0.091,1.698c0,0.001,0.002,0.001,0.002,0.001
	c-0.002,0-0.002,0-0.004,0c-1.498,1.135-4.504,1.557-5.682,1.26c-1.021-0.257-1.788-1.382-1.426-2.517
	c0.141-0.444,0.174-0.698-0.602-0.068c-4.606,3.748-6.709,2.986-7.623,2.763c-0.917-0.225-0.967-2.021-0.661-3.338
	c0.213-0.543,0.116-0.73-0.523-0.024c-2.742,3.036-4.748,2.871-5.681,2.381c-0.525-0.274-1.188-1.098-0.907-2.853
	c1.641-13.013,12.813-23.12,26.411-23.338c13.287-0.208,24.553,9.093,26.982,21.603c-2.472-13.405-14.485-23.406-28.666-23.193
	c-14.381,0.221-26.213,10.876-28.026,24.629c-0.002,0.014-0.004,0.025-0.006,0.039c-0.392,2.637,0.168,5.379-0.379,5.403
	c-0.583,0.028-1.031-2.111-1.221-3.197c0,0-0.049-0.267-0.141-0.767c-0.049-0.249-0.106-0.557-0.173-0.92
	c-0.029-0.178-0.075-0.381-0.1-0.577c-0.03-0.2-0.059-0.411-0.09-0.633c-0.059-0.448-0.139-0.938-0.2-1.484
	c-0.056-0.551-0.112-1.147-0.173-1.783c-0.05-0.639-0.074-1.319-0.112-2.038c-0.004-0.09-0.009-0.179-0.015-0.27
	c0-0.012-0.001-0.023-0.002-0.035v-0.077c-0.001-0.047-0.002-0.095-0.002-0.142c-0.001-0.189-0.003-0.381-0.004-0.577
	c-0.007-0.388-0.009-0.787-0.012-1.192c0.013-0.388,0.023-0.786,0.036-1.189c0.007-0.203,0.013-0.407,0.018-0.613
	c0.009-0.208,0.027-0.418,0.042-0.63c0.028-0.425,0.059-0.858,0.087-1.297c0.046-0.438,0.094-0.884,0.142-1.333
	c0.21-1.8,0.513-3.697,0.983-5.626c0.458-1.931,1.042-3.904,1.768-5.868c0.734-1.959,1.603-3.907,2.594-5.798
	c0.993-1.889,2.094-3.726,3.304-5.453c1.209-1.727,2.506-3.355,3.846-4.861c1.334-1.511,2.73-2.874,4.108-4.109
	c0.175-0.154,0.346-0.307,0.519-0.459c0.169-0.151,0.338-0.303,0.515-0.443c0.346-0.286,0.688-0.568,1.023-0.846
	c0.336-0.279,0.682-0.531,1.014-0.79c0.334-0.256,0.658-0.513,0.99-0.742c0.33-0.236,0.652-0.466,0.971-0.69
	c0.155-0.115,0.316-0.221,0.474-0.324c0.157-0.104,0.313-0.208,0.468-0.31c0.307-0.201,0.607-0.403,0.904-0.59
	c0.297-0.182,0.588-0.358,0.87-0.53c0.281-0.167,0.551-0.344,0.821-0.491c0.268-0.15,0.526-0.295,0.776-0.434
	c0.249-0.14,0.489-0.272,0.716-0.4c0.233-0.12,0.454-0.234,0.666-0.341c0.423-0.214,0.793-0.415,1.127-0.572s0.619-0.29,0.848-0.396
	c0.46-0.216,0.707-0.332,0.707-0.332s-0.252,0.104-0.723,0.295c-0.237,0.096-0.524,0.214-0.868,0.354
	c-0.34,0.139-0.723,0.322-1.156,0.515c-0.217,0.098-0.445,0.2-0.684,0.309c-0.237,0.116-0.483,0.237-0.742,0.364
	c-0.257,0.127-0.524,0.26-0.801,0.396c-0.277,0.135-0.555,0.297-0.847,0.453c-0.293,0.157-0.594,0.321-0.903,0.488
	c-0.307,0.174-0.617,0.362-0.938,0.55c-0.163,0.094-0.324,0.19-0.488,0.287c-0.167,0.096-0.33,0.194-0.495,0.302
	c-0.333,0.211-0.668,0.426-1.014,0.647c-0.346,0.215-0.686,0.458-1.038,0.699c-0.348,0.246-0.714,0.482-1.065,0.748
	c-0.355,0.265-0.715,0.533-1.081,0.805c-0.185,0.134-0.368,0.278-0.546,0.424s-0.361,0.292-0.544,0.438
	c-1.462,1.184-2.957,2.499-4.394,3.972c-1.444,1.467-2.857,3.067-4.189,4.777c-1.334,1.711-2.566,3.546-3.691,5.447
	c-1.124,1.901-2.13,3.876-2.999,5.877c-0.857,2.005-1.577,4.034-2.161,6.032c-0.598,1.996-1.015,3.97-1.338,5.854
	c-0.077,0.472-0.151,0.938-0.223,1.397c-0.055,0.461-0.111,0.916-0.166,1.363c-0.027,0.226-0.057,0.444-0.076,0.666
	c-0.02,0.224-0.037,0.446-0.056,0.665c-0.037,0.44-0.07,0.872-0.104,1.294c-0.017,0.406-0.034,0.803-0.051,1.192
	c-0.01,0.194-0.019,0.387-0.027,0.576c-0.001,0.047-0.003,0.095-0.005,0.142c-0.001,0.023-0.002,0.047-0.004,0.07v0.102
	c-0.001,0.096-0.001,0.192-0.001,0.287c0.004,0.763-0.011,1.487,0.007,2.167c0.029,0.682,0.059,1.318,0.083,1.907
	c0.035,0.592,0.096,1.143,0.135,1.638c0.024,0.247,0.043,0.482,0.063,0.703c0.017,0.224,0.051,0.41,0.073,0.595
	c0.048,0.365,0.089,0.676,0.122,0.928c0.039,0.281,0.065,0.485,0.081,0.615c0.004,0.05,0.008,0.102,0.022,0.157
	c0.345,1.55,0.422,1.883,0.177,2.078c-0.431,0.34-1.094-0.353-2.052-1.352c-4.767-5.588-4.641-13.143-4.559-19.616
	c-1.646,5.971-1.577,13.487,1.291,20.161c0.032,0.09,0.072,0.187,0.126,0.295c0.708,1.393,1.519,2.529,2.599,2.711
	c1.769,0.301,2.657-0.651,3.15-1.591c0.491,0.756,2.003,1.44,3.383,1.328c0.952-0.079,1.855-0.702,2.35-1.612
	c0.309,0.281,0.684,0.511,1.129,0.673c2.043,0.735,4.25-0.713,5.61-1.869c0.048,1.134,0.504,2.762,2.633,2.84
	c2.273,0.082,4.872-1.694,6.663-3.241c0.057,0.834,0.564,2.05,2.146,2.148c1.957,0.124,4.25-0.653,7.763-2.662
	c1.104,0.354,2.629,0.539,3.718,0.701c-0.843,0.243-1.463,0.442-1.671,0.56c-0.674,0.375-1.134,0.773-0.98,1.108
	c0.061,0.132,1.332,2.841,4.348,1.86c3.015-0.984,2.789-2.345,2.361-2.945c-0.115-0.162-0.574-0.356-1.199-0.563
	c2.049-0.644,4.533-1.303,6.455-1.502c-0.651,1.425-0.223,3.655,1.375,4.269c1.531,0.59,4.478-1.056,6.078-2.133
	c0.53,0.999,2.384,1.419,3.972,1.38c0.486-0.012,0.982-0.086,1.471-0.225c0.141-0.041,0.278-0.083,0.411-0.132
	c-0.018,0.221-0.042,0.497-0.071,0.844c-1.357,13.04-12.593,23.379-26.512,23.579c-13.594,0.199-24.916-9.352-27.042-21.911
	c2.141,13.457,14.229,23.724,28.759,23.501c14.855-0.222,26.816-11.318,28.138-25.254c0.185-2.66-0.178-5.592,0.373-5.667
	c0.682-0.092,1.3,2.612,1.521,3.693c0,0,0.057,0.265,0.159,0.763c0.055,0.247,0.119,0.555,0.195,0.915
	c0.037,0.179,0.084,0.38,0.113,0.575c0.033,0.199,0.069,0.408,0.105,0.631c0.072,0.446,0.164,0.933,0.236,1.479
	c0.065,0.549,0.139,1.145,0.216,1.778c0.066,0.638,0.102,1.318,0.162,2.035c0.006,0.09,0.017,0.178,0.021,0.269l0.003,0.035v0.006
	c0.001,0.023,0.003,0.047,0.004,0.07c0.001,0.047,0.003,0.095,0.004,0.143c0.005,0.189,0.013,0.381,0.022,0.576
	c0.01,0.389,0.025,0.785,0.036,1.192c-0.003,0.39-0.007,0.785-0.008,1.189c-0.002,0.204-0.003,0.409-0.003,0.614
	c-0.004,0.207-0.017,0.419-0.025,0.632c-0.019,0.426-0.039,0.859-0.059,1.297c-0.039,0.44-0.075,0.886-0.113,1.337
	c-0.174,1.805-0.433,3.707-0.867,5.648c-0.422,1.94-0.975,3.927-1.673,5.906c-0.708,1.976-1.558,3.941-2.539,5.852
	c-0.983,1.908-2.083,3.767-3.301,5.515c-0.467,0.671-0.96,1.314-1.455,1.955c-0.664-0.135-1.328-0.268-1.996-0.416
	c-1.929-0.418-3.856-0.965-5.852-1.377c-0.996-0.211-2.006-0.398-3.033-0.548c-1.028-0.125-2.073-0.273-3.132-0.199
	c-0.534,0.076-1.07,0.118-1.595,0.162c-0.522,0.073-1.016,0.098-1.566,0.211c-1.045,0.181-2.073,0.468-3.086,0.806
	c-2.015,0.717-3.913,1.772-5.607,3.077c-0.854,0.646-1.662,1.344-2.458,2.047c-0.399,0.349-0.797,0.698-1.197,1.047
	c-0.416,0.373-0.794,0.77-1.141,1.184c-0.701,0.824-1.328,1.697-1.941,2.564c-0.597,0.878-1.309,1.622-2.03,2.437
	c-0.711,0.806-1.464,1.617-2.127,2.459c-0.359,0.43-0.633,0.83-1.044,1.123c-0.401,0.308-0.86,0.562-1.348,0.783
	c-0.49,0.227-0.995,0.41-1.53,0.649c-0.549,0.262-0.979,0.526-1.482,0.782c-0.968,0.507-1.974,1.018-2.95,1.431
	c-0.968,0.424-2.104,0.515-3.209,0.823c-1.106,0.284-2.219,0.666-3.218,1.303c-0.516,0.314-0.936,0.775-1.294,1.195
	c-0.218,0.259-0.407,0.533-0.604,0.802c-1.344,0.226-2.611,0.578-3.75,0.752c-0.053,0.006-0.106,0.013-0.159,0.02
	c-0.088,0.004-0.176,0.009-0.264,0.013c0.143-0.011,0.021-0.009-0.049-0.046c-0.192-0.069-0.483-0.236-0.757-0.403
	c-0.567-0.355-1.163-0.79-1.797-1.227c-0.313-0.218-0.651-0.44-1-0.657c-0.19-0.111-0.343-0.21-0.574-0.328
	c-0.11-0.056-0.219-0.111-0.329-0.167c-0.087-0.039-0.174-0.077-0.262-0.116c-0.599-0.245-1.179-0.311-1.696-0.307
	c-0.513,0.009-0.946,0.077-1.359,0.139c-1.595,0.288-2.804,0.451-4.023,0.089c-1.203-0.344-2.541-1.148-3.833-1.959
	c-1.31-0.828-2.604-1.734-4.047-2.608c-0.366-0.22-0.736-0.429-1.161-0.643c-0.226-0.103-0.515-0.244-0.696-0.307
	c-0.095-0.035-0.19-0.07-0.285-0.105c-0.076-0.025-0.151-0.049-0.226-0.074c-0.054-0.016-0.108-0.032-0.163-0.048
	c-0.833-0.234-1.614-0.426-2.41-0.631c-1.582-0.395-3.146-0.826-4.69-1.265c-0.779-0.187-1.602-0.253-2.362-0.462
	c-0.38-0.108-0.735-0.256-1.065-0.414c-0.313-0.148-0.667-0.378-0.773-0.5c-0.287-0.248-0.4-0.863-0.492-1.553
	c-0.071-0.752-0.143-1.505-0.214-2.258c-0.076-0.807-0.093-1.608-0.013-2.57c0.007-0.243,0-0.501-0.054-0.775
	c-0.035-0.145-0.095-0.37-0.125-0.429l-0.028-0.07c-0.001-0.013-0.065-0.144-0.057-0.124c-0.026-0.05-0.052-0.101-0.078-0.151
	c-0.21-0.398-0.421-0.823-0.665-1.176c-0.937-1.488-2.044-2.768-3.19-3.994c-1.146-1.226-2.337-2.391-3.523-3.551
	c-1.188-1.158-2.376-2.309-3.613-3.417c-0.62-0.553-1.244-1.098-1.904-1.629c-0.167-0.133-0.334-0.266-0.5-0.399
	c-0.193-0.141-0.386-0.281-0.579-0.421c-0.218-0.145-0.286-0.189-0.594-0.367c-0.265-0.11-0.534-0.196-0.796-0.244
	c-0.527-0.105-1.022-0.097-1.49-0.06c-0.465,0.026-0.911,0.087-1.33,0.163c-0.444,0.07-0.748,0.108-1.118,0.114
	c-0.36,0.009-0.73-0.041-1.099-0.099c-1.492-0.29-2.909-1.06-4.378-1.643c-0.34-0.128-0.68-0.256-1.02-0.385
	c-0.108-0.032-0.333-0.203-0.53-0.433c-0.42-0.459-0.826-1.084-1.215-1.72c-0.748-1.296-1.446-2.695-2.017-4.121
	c-0.28-0.725-0.557-1.447-0.834-2.167c-0.274-0.755-0.725-1.446-1.156-2.083c-0.89-1.254-1.791-2.522-2.775-3.641
	c-0.346-0.474-0.604-1.214-0.862-1.882c-0.132-0.344-0.258-0.692-0.415-1.046c-0.122-0.324-0.406-0.823-0.725-1.074
	c-1.143-1.03-2.266-1.909-3.377-2.814c-0.553-0.444-1.102-0.9-1.557-1.381c-0.105-0.127-0.175-0.181-0.267-0.349
	c-0.022-0.038-0.043-0.077-0.065-0.115c-0.029-0.054,0,0.007-0.01-0.017c-0.007-0.018-0.014-0.035-0.021-0.052
	c-0.023-0.074-0.047-0.147-0.07-0.221c-0.087-0.31-0.156-0.648-0.229-0.989c-0.133-0.687-0.255-1.394-0.627-2.117
	c-0.188-0.353-0.498-0.723-0.941-0.936c-0.438-0.22-0.931-0.232-1.33-0.187c-0.805,0.093-1.48,0.359-2.139,0.643
	c-0.652,0.289-1.269,0.626-1.86,1c-0.589,0.377-1.152,0.789-1.681,1.294c-0.264,0.256-0.519,0.536-0.745,0.908
	c-0.057,0.099-0.104,0.188-0.162,0.319c-0.026,0.075-0.053,0.149-0.079,0.224c-0.011,0.043-0.021,0.085-0.032,0.128
	c-0.053,0.279-0.05,0.366-0.076,0.559c-0.096,0.679-0.112,1.319-0.136,1.958c-0.011,0.612-0.024,1.218-0.036,1.817l-0.015,0.409
	c0.008-0.053-0.018,0.062-0.053,0.143c-0.076,0.192-0.207,0.431-0.34,0.66c-0.273,0.463-0.597,0.927-0.929,1.375
	c-0.666,0.898-1.392,1.739-2.118,2.528c-0.729,0.783-1.486,1.514-2.248,2.098c-0.376,0.288-0.754,0.528-1.114,0.672
	c-0.384,0.159-0.827,0.277-1.272,0.372c-1.824,0.36-3.708,0.39-5.418,0.403c-1.719,0-3.314-0.06-4.755-0.123
	c-2.896-0.151-5.171-0.274-6.72-0.358c-1.562-0.074-2.392-0.114-2.392-0.114c-0.03,0.666-0.024,0.541-0.054,1.207
	c0,0,0.937,0.342,2.483,0.419c1.555,0.088,3.687,0.709,6.589,0.868c1.458,0.068,3.077,0.133,4.856,0.138
	c1.782-0.015,3.708-0.021,5.854-0.433c0.538-0.114,1.093-0.253,1.668-0.49c0.603-0.247,1.109-0.585,1.578-0.938
	c0.921-0.706,1.728-1.497,2.518-2.341c0.786-0.845,1.522-1.759,2.232-2.742c0.353-0.494,0.696-1.002,1.017-1.568
	c0.162-0.287,0.317-0.576,0.457-0.941c0.064-0.2,0.142-0.371,0.169-0.727c-0.002-0.165-0.004-0.329-0.006-0.494
	c-0.02-0.607-0.041-1.222-0.06-1.842c-0.01-0.593-0.025-1.197,0.026-1.768l0.022-0.379c0.007-0.034,0.014-0.068,0.021-0.103
	c0.004,0.001,0.004,0.001,0.002,0c0.004-0.014,0.028-0.068,0.047-0.108c0.096-0.18,0.258-0.396,0.443-0.604
	c0.377-0.418,0.846-0.822,1.344-1.193c0.991-0.727,2.169-1.412,3.301-1.698c0.538-0.124,0.917-0.049,1.25,0.433
	c0.335,0.465,0.498,1.131,0.654,1.791c0.072,0.337,0.135,0.682,0.232,1.044c0.029,0.093,0.058,0.185,0.086,0.278
	c0.009,0.023,0.019,0.047,0.028,0.071c0.003,0.017,0.051,0.117,0.047,0.102l0.063,0.116c0.068,0.145,0.242,0.354,0.354,0.505
	c0.48,0.585,1.001,1.087,1.529,1.594c1.051,0.998,2.254,1.89,3.313,2.824c0.263,0.222,0.337,0.382,0.499,0.732
	c0.14,0.332,0.281,0.663,0.422,0.995c0.304,0.687,0.523,1.376,1.077,2.106c1.031,1.11,1.945,2.271,2.784,3.525
	c0.401,0.634,0.773,1.249,1.006,1.937c0.265,0.697,0.473,1.435,0.69,2.172c0.418,1.483,0.717,3.024,1.279,4.566
	c0.273,0.778,0.604,1.552,1.172,2.332c0.303,0.38,0.657,0.787,1.274,1.111c0.08,0.038,0.159,0.075,0.238,0.113
	c0.047,0.018,0.095,0.036,0.142,0.054c0.094,0.036,0.188,0.072,0.283,0.108c0.188,0.068,0.383,0.148,0.578,0.211
	c1.567,0.518,3.241,0.842,4.996,1.04c0.442,0.046,0.892,0.073,1.353,0.074c0.451-0.001,0.966-0.072,1.333-0.129
	c0.393-0.042,0.767-0.069,1.125-0.06c0.355,0.033,0.691,0.093,0.962,0.204c0.279,0.111,0.415,0.231,0.794,0.48
	c0.135,0.104,0.27,0.209,0.405,0.314c0.15,0.124,0.3,0.247,0.451,0.371c0.606,0.503,1.202,1.044,1.792,1.589
	c1.178,1.096,2.336,2.229,3.441,3.407c1.101,1.182,2.123,2.431,3.105,3.689c0.98,1.258,1.891,2.562,2.669,3.835
	c0.22,0.319,0.337,0.639,0.522,0.949c0.131,0.247,0.262,0.494,0.393,0.741c0.33,0.627,0.332,1.436,0.304,2.23
	c-0.024,0.804-0.074,1.646,0.107,2.535c0.078,0.444,0.188,0.911,0.398,1.386c0.109,0.241,0.227,0.481,0.401,0.724
	c0.038,0.059,0.084,0.121,0.132,0.18c0.064,0.077,0.052,0.077,0.183,0.216c0.07,0.066,0.135,0.133,0.296,0.266
	c0.523,0.401,0.903,0.567,1.329,0.781c0.403,0.187,0.806,0.375,1.209,0.562c0.781,0.383,1.529,0.823,2.326,1.117
	c1.615,0.51,3.236,0.895,4.828,1.293c0.792,0.197,1.597,0.388,2.331,0.589c0.043,0.012,0.087,0.024,0.13,0.037
	c0.019,0.005,0.037,0.01,0.055,0.016c0.004,0.001,0.002,0.001,0.008,0.003c0.096,0.034,0.191,0.069,0.287,0.104
	c0.202,0.069,0.269,0.125,0.411,0.183c0.297,0.147,0.631,0.329,0.955,0.52c1.308,0.775,2.631,1.682,4.002,2.535
	c1.396,0.841,2.769,1.722,4.604,2.256c0.305,0.095,0.985,0.232,1.399,0.256c0.471,0.052,0.939,0.048,1.396,0.025
	c0.913-0.047,1.748-0.243,2.47-0.375c0.721-0.147,1.287-0.161,1.506-0.066c0.088,0.037,0.176,0.073,0.264,0.109
	c0.06,0.03,0.12,0.06,0.18,0.09c0.108,0.049,0.278,0.149,0.417,0.224c0.294,0.174,0.593,0.358,0.898,0.56
	c0.61,0.397,1.228,0.829,1.931,1.246c0.367,0.207,0.721,0.417,1.231,0.599c0.281,0.087,0.522,0.172,1.041,0.179
	c0.098-0.007,0.195-0.015,0.292-0.022c0.132-0.017,0.264-0.034,0.396-0.052c0.601-0.111,1.154-0.242,1.689-0.373
	c-0.128,0.25-0.268,0.494-0.386,0.75c-0.224,0.514-0.43,1.035-0.568,1.62c-0.025,0.137-0.051,0.275-0.077,0.412
	c-0.016,0.099-0.044,0.196-0.087,0.29c-0.086,0.19-0.225,0.369-0.401,0.528c-0.727,0.634-1.836,1.002-2.86,1.147
	c-0.289,0.032-0.371,0.024-0.595-0.081c-0.211-0.098-0.437-0.247-0.659-0.399c-0.445-0.308-0.886-0.653-1.366-0.976
	c-0.242-0.162-0.492-0.318-0.771-0.457c-0.258-0.131-0.672-0.278-1-0.271c-0.613,0.014-1.164,0.073-1.734,0.121
	c-1.127,0.1-2.253,0.205-3.36,0.227c-0.566,0.006-1.081,0.011-1.595-0.095c-0.389-0.083-0.814-0.419-1.194-0.771
	c-0.782-0.721-1.448-1.61-2.417-2.33c-0.22-0.171-0.594-0.371-0.821-0.45c-0.327-0.11-0.564-0.166-0.85-0.25
	c-0.55-0.167-1.1-0.296-1.647-0.427c-1.094-0.266-2.226-0.505-3.319-0.689c-1.092-0.167-2.152-0.432-3.213-0.728
	c-1.063-0.317-2.092-0.608-3.032-1.088c-0.891-0.504-1.786-1.165-2.647-1.801c-1.752-1.287-3.393-2.623-5.113-3.98
	c-0.91-0.677-1.957-1.135-2.93-1.566c-0.977-0.435-1.943-0.874-2.864-1.37c-0.455-0.251-0.91-0.505-1.332-0.789
	c-0.432-0.286-0.78-0.534-1.172-0.922c-0.191-0.186-0.382-0.371-0.574-0.557c-0.223-0.178-0.44-0.365-0.688-0.513
	c-0.235-0.164-0.498-0.28-0.736-0.426c-0.24-0.149-0.461-0.321-0.709-0.43c-0.239-0.098-0.477-0.197-0.716-0.295
	c-0.053-0.022-0.106-0.044-0.16-0.067c-0.018-0.012-0.04-0.021-0.068-0.042c-0.052-0.034-0.118-0.098-0.183-0.167
	c-0.263-0.295-0.502-0.732-0.737-1.164c-0.539-0.851-0.834-1.843-1.659-2.742c-0.211-0.223-0.47-0.443-0.81-0.604
	c-0.454-0.202-0.672-0.167-1.004-0.205c-0.593-0.024-1.132,0.029-1.66,0.093c-1.053,0.134-2.055,0.325-3.053,0.493
	c-3.971,0.717-7.878,1.122-11.65,0.771c-3.723-0.233-7.156-1.771-9.906-3.889c-0.684-0.532-1.333-1.098-1.897-1.708
	c-0.585-0.605-0.944-1.215-1.27-2.007c-0.334-0.765-0.637-1.551-1.01-2.336c-0.082-0.188-0.218-0.421-0.328-0.625
	c-0.058-0.102-0.116-0.177-0.174-0.267c-0.029-0.043-0.058-0.086-0.087-0.129c-0.098-0.117-0.108-0.118-0.167-0.182
	c-0.36-0.345-0.685-0.588-1.025-0.851c-1.346-1.015-2.691-1.936-4.013-2.833c-0.669-0.441-1.329-0.877-1.982-1.308
	c-0.615-0.417-1.42-0.88-2.209-1.064c-0.789-0.21-1.564-0.297-2.314-0.372c-0.75-0.083-1.488-0.072-2.167-0.348
	c-0.683-0.251-1.309-0.476-1.958-0.54c-0.632-0.018-1.259-0.288-1.821-0.599c-1.153-0.612-2.214-1.346-3.266-2.051
	c-0.527-0.353-1.051-0.702-1.608-1.018c-0.576-0.299-1.105-0.635-1.966-0.676c-1.139,0.104-2.173-0.126-3.235-0.324
	c-1.045-0.211-2.044-0.451-2.996-0.669c-3.802-0.907-6.851-1.487-8.952-1.732c-1.056-0.122-1.819,0.091-2.353,0.063
	c-0.539-0.036-0.443-0.02-0.443-0.02c-0.022,0.333,0.085,0.322,0.063,0.655c0,0,0.14,0.06,0.258,0.068
	c0.547,0.041,1.327,0.104,2.349,0.218c2.058,0.246,5.053,0.774,8.837,1.712c0.951,0.228,1.948,0.478,3.02,0.704
	c0.535,0.111,1.083,0.225,1.67,0.3c0.285,0.05,0.593,0.066,0.901,0.088c0.149,0.019,0.321,0.001,0.485,0
	c0.142-0.004,0.283-0.008,0.424-0.012c0.325,0.015,0.89,0.272,1.363,0.561c0.495,0.294,0.997,0.643,1.51,1.002
	c1.026,0.72,2.1,1.5,3.328,2.187c0.156,0.083,0.312,0.167,0.468,0.25c0.04,0.021,0.08,0.041,0.119,0.062
	c0.048,0.021,0.096,0.043,0.143,0.065c0.078,0.037,0.16,0.066,0.232,0.11c0.282,0.148,0.691,0.352,1.027,0.512
	c0.699,0.344,1.488,0.348,2.246,0.265c0.76-0.102,1.485,0.033,2.219,0.104c0.729,0.084,1.46,0.182,2.141,0.377
	c0.7,0.188,1.233,0.507,1.897,0.967c0.635,0.439,1.28,0.883,1.931,1.331c1.292,0.914,2.616,1.861,3.899,2.87
	c0.313,0.246,0.648,0.523,0.876,0.751c0.01,0.006,0.076,0.087,0.042,0.032c0.028,0.044,0.057,0.087,0.085,0.131
	c0.052,0.084,0.122,0.179,0.162,0.256c0.074,0.163,0.149,0.281,0.231,0.475c0.326,0.725,0.614,1.513,0.945,2.313
	c0.174,0.406,0.331,0.803,0.589,1.243c0.094,0.175,0.26,0.395,0.41,0.599c0.15,0.202,0.3,0.363,0.451,0.548
	c0.617,0.694,1.302,1.315,2.024,1.903c2.875,2.311,6.578,4.1,10.657,4.405c3.976,0.354,8.076-0.1,12.08-0.842
	c1-0.174,2.002-0.368,2.975-0.494c0.483-0.061,0.964-0.106,1.378-0.094c0.097,0.007,0.193,0.014,0.29,0.021
	c0.01,0,0.008-0.001,0.004-0.002c0.005,0.001,0.01,0.002,0.024,0.005c0.031,0.006,0.063,0.013,0.095,0.019
	c0.024,0.011,0.002,0.006,0.021,0.008c0.097,0.039,0.228,0.125,0.357,0.255c0.268,0.257,0.527,0.642,0.768,1.05
	c0.247,0.408,0.477,0.852,0.678,1.334c0.238,0.469,0.459,0.958,0.906,1.473c0.122,0.127,0.254,0.259,0.439,0.383
	c0.084,0.062,0.193,0.123,0.306,0.175c0.07,0.029,0.141,0.059,0.21,0.088c0.241,0.094,0.494,0.203,0.755,0.284
	c0.241,0.082,0.514,0.081,0.751,0.142c0.231,0.072,0.439,0.183,0.626,0.312c0.2,0.116,0.371,0.267,0.552,0.407
	c0.182,0.176,0.364,0.351,0.545,0.527c0.339,0.342,0.873,0.749,1.327,1.041c0.464,0.308,0.943,0.574,1.423,0.836
	c0.965,0.518,1.954,0.963,2.946,1.4c0.994,0.436,1.927,0.841,2.73,1.435c1.644,1.279,3.363,2.678,5.12,3.96
	c0.893,0.65,1.745,1.29,2.794,1.882c0.307,0.172,0.515,0.238,0.788,0.36c0.277,0.101,0.554,0.201,0.83,0.301
	c0.537,0.183,1.08,0.346,1.623,0.501c1.084,0.301,2.204,0.576,3.331,0.745c1.116,0.187,2.163,0.407,3.247,0.667
	c0.54,0.127,1.082,0.254,1.601,0.41c0.25,0.071,0.499,0.141,0.749,0.212c0.311,0.123,0.376,0.173,0.603,0.33
	c0.794,0.575,1.474,1.451,2.324,2.243c0.441,0.383,0.9,0.83,1.694,1.02c0.237,0.06,0.67,0.1,0.938,0.109
	c0.302,0.013,0.597,0.014,0.89,0.007c1.167-0.028,2.304-0.137,3.434-0.237c0.558-0.049,1.139-0.108,1.645-0.12
	c0.226,0.012,0.289,0.059,0.537,0.163c0.213,0.104,0.433,0.241,0.652,0.387c0.443,0.294,0.882,0.635,1.36,0.966
	c0.244,0.165,0.488,0.331,0.804,0.48c0.074,0.038,0.16,0.074,0.261,0.104c0.088,0.034,0.193,0.064,0.331,0.076
	c0.062,0.007,0.129,0.018,0.187,0.015c0.039-0.001,0.078-0.003,0.117-0.005c0.086-0.007,0.172-0.015,0.259-0.021
	c1.237-0.194,2.396-0.545,3.416-1.409c0.246-0.225,0.473-0.502,0.624-0.835c0.073-0.167,0.126-0.346,0.155-0.53
	c0.023-0.126,0.047-0.253,0.071-0.38c0.107-0.448,0.291-0.939,0.499-1.417c0.217-0.477,0.459-0.948,0.722-1.41
	c0.463-0.11,0.917-0.211,1.363-0.279c0.315-0.053,0.624-0.08,0.85-0.074c0.07-0.001,0.106,0.002,0.124,0.006
	c0.017,0.005,0.059,0.026,0.125,0.08c0.3,0.241,0.687,0.886,1.257,1.497c0.294,0.309,0.665,0.627,1.135,0.856
	c0.464,0.232,1.008,0.343,1.498,0.347c1.027,0.021,1.926-0.425,2.554-0.9c1.256-0.971,2.031-2.063,2.837-3.063
	c0.393-0.502,0.774-0.99,1.164-1.429c0.381-0.43,0.8-0.835,1.148-1.022c0.878-0.396,2.129-0.602,3.279-0.763
	c1.17-0.16,2.334-0.264,3.479-0.364c2.329-0.137,4.555-0.631,6.545-1.144c1.006-0.267,1.971-0.545,2.895-0.9
	c0.917-0.349,1.743-0.69,2.57-1.028c1.644-0.669,3.124-1.354,4.439-2.006c2.637-1.304,4.592-2.536,5.867-3.449
	c0.2-0.149,0.38-0.283,0.548-0.411c0.254-0.165,0.507-0.331,0.767-0.506c0.36-0.248,0.738-0.488,1.102-0.757
	c0.367-0.267,0.739-0.538,1.116-0.815c0.191-0.137,0.375-0.283,0.562-0.43c0.188-0.148,0.375-0.296,0.563-0.444
	c1.506-1.202,3.04-2.536,4.508-4.032c0.839-0.849,1.661-1.752,2.467-2.685c0.908,0.19,1.814,0.366,2.725,0.508
	c1.913,0.318,3.897,0.455,5.752,0.513c1.864,0.089,3.702,0.212,5.521,0.33c1.82,0.108,3.613,0.237,5.422,0.187
	c1.783-0.056,3.694-0.258,5.323-1.232c1.361-0.896,2.852-1.578,4.181-2.717c0.166-0.148,0.328-0.311,0.479-0.514
	c0.169-0.234,0.229-0.426,0.324-0.546c0.159-0.221,0.439-0.515,0.702-0.754c0.534-0.513,1.173-0.929,1.807-1.314
	c0.16-0.095,0.313-0.197,0.479-0.276c0.173-0.085,0.346-0.169,0.518-0.254c0.428-0.244,0.764-0.537,1.054-0.807
	c0.586-0.55,1.063-1.068,1.502-1.43c0.21-0.189,0.426-0.316,0.619-0.425c0.208-0.119,0.613-0.29,0.92-0.47
	c0.634-0.339,1.226-0.698,1.803-1.062c1.15-0.732,2.263-1.44,3.336-2.124c1.093-0.663,2.146-1.303,3.156-1.919l0.384-0.256
	c0.112-0.075,0.312-0.238,0.38-0.295c0.131-0.113,0.166-0.14,0.249-0.191c0.081-0.053,0.164-0.086,0.252-0.119
	c0.178-0.06,0.407-0.082,0.719-0.12c0.159-0.022,0.331-0.053,0.509-0.108c0.088-0.032,0.178-0.061,0.261-0.104
	c0.042-0.021,0.084-0.042,0.127-0.063c-0.058,0.029,0.037-0.015,0.05-0.019c0.135-0.066,0.234-0.094,0.313-0.109
	c0.067-0.025,0.218-0.051,0.33-0.077c0.259-0.049,0.514-0.098,0.767-0.146c0.519-0.106,1.043-0.223,1.536-0.413
	c0.466-0.168,0.905-0.351,1.292-0.453c0.2-0.052,0.393-0.096,0.546-0.097c0.078-0.005,0.159,0.005,0.315,0.013
	c0.095-0.005,0.188-0.003,0.282-0.026c0.054-0.012,0.106-0.023,0.16-0.035c0.187-0.035,0.479-0.121,0.693-0.212
	c0.246-0.104,0.327-0.152,0.504-0.186c0.188-0.042,0.418-0.077,0.684-0.197c0.131-0.059,0.276-0.151,0.39-0.281
	c0.058-0.066,0.104-0.138,0.142-0.213c0.021-0.045,0.042-0.09,0.063-0.135c0.539-1.291,1.541-1.948,2.436-2.294
	c0.9-0.353,1.674-0.435,2.181-0.504l-0.032-0.226C246.766,91.417,246.781,91.677,246.766,91.344z M165.893,72.996
	c-0.443,0.052-1.163-0.316-1.128-0.516c0.015-0.078,0.999-0.482,2.425-0.972C167.478,72.085,166.294,72.949,165.893,72.996z
	 M187.247,71.473c-1.327,0.032-2.231-0.356-2.476-0.825c-0.061-0.123-0.083-0.259-0.065-0.405c0.989-0.657,1.395-0.983,1.647-1.473
	c0.04-0.078,0.06-0.156,0.06-0.231c0.036-0.015,0.073-0.031,0.111-0.046c0.413-0.157,0.666-0.213,1.087-0.224
	c0.888,0.001,1.717,0.342,1.958,1.163C189.896,70.544,187.667,71.463,187.247,71.473z M182.313,114.866
	c-1.356,1.53-2.791,2.913-4.208,4.163c-0.18,0.156-0.355,0.311-0.532,0.465c-0.174,0.153-0.35,0.307-0.53,0.449
	c-0.359,0.29-0.711,0.575-1.058,0.856c-0.345,0.283-0.704,0.537-1.047,0.799c-0.348,0.258-0.681,0.519-1.025,0.75
	c-0.256,0.178-0.505,0.352-0.754,0.524c-1.278,0.795-3.086,1.789-5.417,2.816c-1.326,0.588-2.816,1.19-4.458,1.811
	c-0.816,0.302-1.695,0.638-2.573,0.936c-0.868,0.297-1.818,0.537-2.798,0.759c-1.989,0.429-4.059,0.825-6.336,0.87
	c-1.154,0.056-2.344,0.117-3.575,0.236c-1.233,0.146-2.482,0.231-3.922,0.812c-0.77,0.392-1.249,0.891-1.724,1.371
	c-0.462,0.487-0.88,0.984-1.294,1.475c-0.82,0.965-1.647,1.968-2.553,2.606c-0.446,0.312-0.868,0.452-1.247,0.426
	c-0.397-0.025-0.636-0.145-1-0.537c-0.373-0.388-0.644-0.977-1.375-1.685c-0.195-0.174-0.441-0.355-0.755-0.49
	c-0.367-0.158-0.717-0.194-0.93-0.2c-0.212-0.01-0.404-0.004-0.593,0.005c0.353-0.43,0.729-0.816,1.145-1.086
	c0.855-0.551,1.874-0.915,2.925-1.185c0.527-0.136,1.065-0.249,1.617-0.367c0.276-0.059,0.557-0.123,0.849-0.199
	c0.314-0.085,0.579-0.198,0.838-0.297c1.096-0.466,2.059-0.966,3.056-1.488c0.478-0.245,1.013-0.563,1.438-0.766
	c0.462-0.207,1.005-0.408,1.524-0.65c0.522-0.24,1.044-0.524,1.525-0.895c0.239-0.185,0.465-0.395,0.667-0.631
	c0.174-0.214,0.348-0.428,0.522-0.643c0.671-0.858,1.381-1.618,2.088-2.427c0.695-0.79,1.482-1.629,2.079-2.516
	c0.614-0.872,1.22-1.723,1.889-2.512c2.912-2.902,6.145-5.809,10.017-7.121c0.967-0.325,1.948-0.602,2.952-0.775
	c0.449-0.098,1.016-0.137,1.516-0.208c0.508-0.047,1,0.015,1.49,0.067c0.5,0.092,0.996,0.095,1.495,0.105
	c0.5,0.039,1,0.061,1.497,0.11c0.998,0.105,1.991,0.247,2.979,0.417c2.545,0.42,5.027,1.041,7.5,1.596
	C183.595,113.388,182.96,114.144,182.313,114.866z M123.621,48.978c0.404-0.107,1.519-1.532,1.934-1.868
	c0.415-0.335-0.532-4.917-0.835-5.175c-0.306-0.255-1.806,1.301-1.322,3.084C123.886,46.801,123.211,49.087,123.621,48.978z"/>
<path fill="#333333" d="M3.417,91.012c0,0,0.695-0.011,1.219,0c0.426-0.017,0.889,0.061,1.916,0.134
	c2.045,0.148,5.021,0.591,8.738,1.335c0.93,0.178,1.906,0.375,2.926,0.543c1.035,0.154,2.045,0.342,3.143,0.192
	c0.834,0.007,1.359,0.321,1.928,0.598c0.551,0.294,1.07,0.622,1.594,0.954c1.043,0.664,2.096,1.357,3.232,1.926
	c0.555,0.29,1.17,0.536,1.781,0.531c0.629,0.04,1.242,0.241,1.91,0.468c0.666,0.251,1.379,0.214,2.105,0.271
	c0.727,0.048,1.479,0.107,2.248,0.291c0.768,0.156,1.561,0.592,2.168,0.988c0.645,0.409,1.295,0.823,1.955,1.242
	c1.305,0.854,2.631,1.73,3.959,2.703c0.336,0.252,0.656,0.484,1.014,0.818c0.059,0.063,0.068,0.063,0.166,0.177l0.088,0.126
	c0.059,0.088,0.117,0.161,0.176,0.262c0.111,0.201,0.25,0.43,0.334,0.615c0.383,0.773,0.697,1.55,1.041,2.305
	c0.336,0.782,0.699,1.381,1.279,1.969c0.561,0.594,1.201,1.141,1.873,1.652c2.703,2.037,6.039,3.48,9.619,3.621
	c3.631,0.256,7.373-0.238,11.174-1.037c0.955-0.188,1.914-0.399,2.924-0.554c0.506-0.074,1.023-0.138,1.594-0.125
	c0.32,0.032,0.529-0.007,0.969,0.187c0.33,0.154,0.582,0.37,0.789,0.589c0.809,0.884,1.109,1.87,1.641,2.712
	c0.232,0.427,0.469,0.859,0.727,1.15c0.063,0.068,0.127,0.131,0.178,0.164c0.027,0.021,0.049,0.029,0.066,0.041l0.154,0.064
	l0.691,0.283c0.24,0.104,0.455,0.273,0.688,0.418c0.23,0.143,0.484,0.254,0.713,0.414c0.24,0.144,0.451,0.327,0.668,0.502
	l0.559,0.548c0.381,0.382,0.719,0.624,1.137,0.903c0.408,0.277,0.848,0.524,1.287,0.769c0.889,0.482,1.82,0.908,2.762,1.329
	c0.938,0.417,1.945,0.861,2.824,1.527c1.662,1.335,3.246,2.651,4.934,3.92c0.83,0.627,1.691,1.278,2.547,1.773
	c0.902,0.471,1.887,0.752,2.904,1.061c1.016,0.287,2.029,0.544,3.072,0.702c1.045,0.177,2.127,0.408,3.172,0.667
	c0.523,0.128,1.049,0.254,1.574,0.418c0.273,0.083,0.5,0.138,0.813,0.246c0.217,0.077,0.574,0.275,0.785,0.445
	c0.928,0.715,1.566,1.602,2.314,2.319c0.363,0.351,0.77,0.685,1.141,0.767c0.49,0.104,0.98,0.098,1.52,0.09
	c1.055-0.025,2.127-0.133,3.201-0.234c0.543-0.049,1.068-0.108,1.652-0.123c0.313-0.008,0.707,0.139,0.953,0.27
	c0.266,0.139,0.504,0.295,0.734,0.457c0.457,0.322,0.877,0.668,1.301,0.976c0.211,0.152,0.426,0.302,0.627,0.399
	c0.213,0.105,0.291,0.113,0.566,0.081c0.975-0.144,2.031-0.511,2.725-1.144c0.168-0.159,0.301-0.338,0.383-0.527
	c0.041-0.094,0.068-0.191,0.084-0.29l0.074-0.412c0.133-0.584,0.33-1.104,0.545-1.618c0.445-1.016,0.979-1.979,1.582-2.896
	c0.301-0.461,0.621-0.908,0.971-1.341c0.344-0.419,0.746-0.878,1.24-1.19c0.957-0.634,2.021-1.011,3.08-1.289
	c1.059-0.303,2.145-0.388,3.072-0.806c0.936-0.407,1.9-0.911,2.83-1.411c0.482-0.252,0.896-0.514,1.424-0.771
	c0.514-0.234,0.998-0.414,1.469-0.637c0.469-0.217,0.91-0.467,1.297-0.771c0.396-0.289,0.662-0.687,1.01-1.113
	c0.643-0.836,1.371-1.64,2.061-2.438c0.699-0.808,1.389-1.544,1.971-2.415c0.598-0.861,1.209-1.728,1.891-2.543
	c0.338-0.41,0.705-0.803,1.109-1.17l1.162-1.033c0.773-0.693,1.559-1.381,2.389-2.016c1.646-1.282,3.488-2.311,5.439-2.996
	c0.98-0.322,1.975-0.593,2.984-0.756c0.531-0.104,1.008-0.12,1.512-0.185c0.506-0.034,1.023-0.067,1.539-0.134
	c1.021-0.055,2.025,0.112,3.014,0.257c0.986,0.169,1.955,0.376,2.91,0.607c1.914,0.452,3.758,1.04,5.605,1.501
	c1.846,0.47,3.672,0.9,5.49,1.211c1.826,0.326,3.605,0.467,5.424,0.55c1.811,0.108,3.588,0.256,5.33,0.396
	c1.74,0.133,3.451,0.283,5.104,0.261c1.645-0.02,3.268-0.217,4.557-0.973c1.4-0.868,2.965-1.371,4.123-2.245
	c0.139-0.108,0.266-0.223,0.363-0.336c0.078-0.092,0.17-0.26,0.289-0.451c0.27-0.395,0.535-0.659,0.824-0.944
	c0.576-0.54,1.158-1.032,1.711-1.573c0.139-0.136,0.285-0.258,0.422-0.4l0.219-0.212l0.059-0.054
	c-0.053,0.026,0.014-0.022,0.016-0.029l0.096-0.104c0.137-0.199,0.262-0.456,0.416-0.748c0.297-0.582,0.592-1.3,1.221-1.973
	c0.328-0.316,0.709-0.661,1.195-0.881c0.469-0.195,0.67-0.294,0.984-0.401c0.611-0.239,1.248-0.456,1.875-0.661
	c1.26-0.398,2.502-0.766,3.643-1.227c1.143-0.46,2.186-1.031,3.145-1.59l0.342-0.21c0.127-0.081,0.148-0.103,0.305-0.212
	c0.092-0.064,0.285-0.195,0.447-0.268c0.164-0.08,0.344-0.133,0.516-0.172c0.354-0.07,0.67-0.05,0.904-0.049
	c0.117-0.002,0.221-0.007,0.313-0.021c0.043-0.01,0.09-0.016,0.131-0.031l0.064-0.021l0.129-0.048
	c0.58-0.203,1.139-0.205,1.605-0.271c0.48-0.061,0.941-0.127,1.369-0.26c0.453-0.116,0.887-0.274,1.365-0.377
	c0.234-0.045,0.475-0.09,0.74-0.076c0.131,0.004,0.256,0.025,0.332,0.034c0.029-0.005,0.057,0.003,0.08-0.003l0.158-0.023
	c0.229-0.028,0.369-0.068,0.547-0.127c0.154-0.055,0.418-0.16,0.635-0.18c0.203-0.031,0.377-0.051,0.486-0.106
	c0.055-0.028,0.086-0.058,0.104-0.085c0.01-0.015,0.016-0.029,0.023-0.046l0.055-0.119c0.305-0.698,0.768-1.327,1.287-1.761
	c0.518-0.446,1.076-0.726,1.58-0.921c1.018-0.388,1.84-0.456,2.381-0.521c0.545-0.028,0.826-0.042,0.826-0.042v1
	c0,0-0.26,0.006-0.762,0.018c-0.494,0.046-1.246,0.092-2.133,0.402c-0.881,0.305-1.879,0.916-2.457,2.182l-0.066,0.132
	c-0.041,0.073-0.088,0.143-0.146,0.206c-0.115,0.125-0.26,0.211-0.389,0.264c-0.262,0.107-0.486,0.133-0.67,0.166
	c-0.172,0.025-0.252,0.07-0.494,0.163c-0.211,0.081-0.498,0.154-0.68,0.181l-0.156,0.028c-0.092,0.019-0.182,0.013-0.273,0.014
	c-0.15-0.015-0.229-0.028-0.305-0.026c-0.148-0.006-0.336,0.03-0.531,0.073c-0.379,0.085-0.811,0.248-1.268,0.396
	c-0.484,0.169-0.996,0.263-1.502,0.347c-0.246,0.037-0.494,0.075-0.746,0.113c-0.109,0.021-0.256,0.04-0.322,0.063
	c-0.076,0.012-0.174,0.035-0.307,0.096c-0.012,0.003-0.105,0.043-0.049,0.017l-0.125,0.058c-0.082,0.039-0.17,0.064-0.256,0.093
	c-0.174,0.048-0.342,0.071-0.496,0.087c-0.303,0.025-0.525,0.037-0.699,0.09c-0.086,0.029-0.168,0.059-0.248,0.108
	c-0.082,0.048-0.117,0.073-0.248,0.181c-0.068,0.055-0.268,0.209-0.379,0.279l-0.381,0.24c-1,0.574-2.041,1.172-3.121,1.791
	c-1.063,0.641-2.162,1.305-3.299,1.992c-0.57,0.342-1.154,0.678-1.777,0.993c-0.303,0.168-0.699,0.323-0.904,0.435
	c-0.189,0.103-0.402,0.221-0.611,0.402c-0.436,0.346-0.914,0.846-1.498,1.374c-0.289,0.26-0.623,0.54-1.043,0.769l-0.508,0.235
	c-0.162,0.073-0.313,0.17-0.471,0.259c-0.623,0.362-1.252,0.756-1.783,1.25c-0.262,0.23-0.541,0.514-0.701,0.729
	c-0.096,0.116-0.16,0.307-0.33,0.534c-0.152,0.197-0.314,0.354-0.479,0.497c-1.316,1.093-2.771,1.724-4.107,2.575
	c-1.596,0.92-3.438,1.062-5.152,1.063c-1.74-0.005-3.459-0.188-5.205-0.348c-1.744-0.17-3.508-0.344-5.297-0.482
	c-1.781-0.107-3.686-0.295-5.518-0.659c-3.699-0.696-7.344-1.938-11.146-2.673c-0.947-0.189-1.9-0.351-2.859-0.475
	c-0.479-0.059-0.959-0.09-1.439-0.138c-0.48-0.019-0.957-0.031-1.438-0.132c-0.471-0.061-0.943-0.131-1.434-0.093
	c-0.482,0.063-1.029,0.092-1.463,0.183c-0.969,0.157-1.918,0.418-2.854,0.728c-3.748,1.252-6.896,4.116-9.725,6.983
	c-0.65,0.781-1.242,1.625-1.84,2.49c-0.582,0.88-1.346,1.711-2.02,2.493c-0.686,0.802-1.373,1.555-2.023,2.406l-0.506,0.638
	c-0.195,0.234-0.414,0.442-0.645,0.625c-0.463,0.366-0.965,0.646-1.467,0.882c-0.498,0.237-1.02,0.435-1.463,0.638
	c-0.408,0.199-0.922,0.514-1.381,0.755c-0.957,0.516-1.881,1.009-2.932,1.468c-0.248,0.098-0.502,0.209-0.803,0.292
	c-0.279,0.075-0.549,0.137-0.813,0.194c-0.527,0.115-1.043,0.225-1.547,0.358c-1.006,0.265-1.98,0.624-2.799,1.172
	c-0.752,0.506-1.375,1.423-1.953,2.28c-0.574,0.879-1.084,1.809-1.5,2.76c-0.199,0.477-0.375,0.968-0.479,1.415l-0.068,0.38
	c-0.027,0.184-0.078,0.362-0.148,0.529c-0.145,0.333-0.361,0.609-0.596,0.834c-0.973,0.862-2.076,1.211-3.254,1.404l-0.246,0.021
	l-0.111,0.005c-0.055,0.003-0.119-0.008-0.178-0.015c-0.131-0.012-0.23-0.042-0.314-0.076c-0.096-0.03-0.178-0.066-0.248-0.104
	c-0.301-0.149-0.533-0.315-0.766-0.48c-0.455-0.331-0.873-0.672-1.295-0.966c-0.209-0.146-0.418-0.282-0.621-0.387
	c-0.236-0.104-0.297-0.15-0.512-0.162c-0.482,0.013-1.035,0.072-1.566,0.122c-1.076,0.103-2.158,0.214-3.27,0.245
	c-0.279,0.008-0.561,0.008-0.848-0.004c-0.256-0.008-0.668-0.047-0.895-0.105c-0.756-0.188-1.195-0.633-1.617-1.014
	c-0.813-0.789-1.465-1.661-2.225-2.232c-0.217-0.155-0.279-0.205-0.576-0.326l-0.715-0.208c-0.496-0.153-1.014-0.276-1.529-0.4
	c-1.035-0.253-2.035-0.466-3.102-0.645c-1.076-0.16-2.146-0.427-3.184-0.718c-0.52-0.15-1.039-0.309-1.553-0.486l-0.795-0.293
	c-0.262-0.119-0.461-0.184-0.756-0.353c-1.008-0.581-1.828-1.212-2.688-1.853c-1.691-1.263-3.352-2.641-4.939-3.898
	c-0.775-0.584-1.674-0.977-2.631-1.398c-0.955-0.423-1.908-0.854-2.84-1.357c-0.463-0.255-0.926-0.514-1.375-0.814
	c-0.439-0.284-0.957-0.683-1.287-1.02l-0.531-0.518c-0.176-0.138-0.342-0.286-0.535-0.398c-0.182-0.125-0.383-0.232-0.605-0.301
	c-0.229-0.057-0.49-0.052-0.723-0.129c-0.252-0.077-0.496-0.182-0.729-0.271l-0.203-0.084c-0.109-0.051-0.215-0.109-0.297-0.17
	c-0.18-0.121-0.309-0.25-0.428-0.375c-0.438-0.508-0.658-0.992-0.895-1.457c-0.201-0.479-0.43-0.918-0.674-1.321
	c-0.238-0.404-0.494-0.784-0.756-1.036c-0.127-0.127-0.254-0.211-0.348-0.248c-0.018-0.002,0.004,0.003-0.02-0.008l-0.092-0.018
	c-0.078-0.016,0.004-0.002-0.027-0.003l-0.279-0.016c-0.398-0.005-0.859,0.05-1.322,0.12c-0.932,0.146-1.891,0.359-2.848,0.554
	c-3.83,0.823-7.754,1.37-11.578,1.116c-3.922-0.203-7.521-1.889-10.35-4.115c-0.711-0.566-1.387-1.167-2-1.843
	c-0.15-0.18-0.299-0.337-0.449-0.534c-0.15-0.199-0.316-0.414-0.412-0.586c-0.262-0.432-0.424-0.824-0.604-1.225
	c-0.342-0.789-0.643-1.568-0.979-2.282c-0.084-0.191-0.16-0.308-0.236-0.468c-0.041-0.076-0.111-0.168-0.164-0.251l-0.086-0.128
	c0.035,0.054-0.031-0.025-0.041-0.031c-0.227-0.221-0.559-0.487-0.867-0.724c-1.268-0.968-2.574-1.872-3.85-2.743
	c-0.643-0.426-1.279-0.848-1.906-1.266c-0.656-0.438-1.182-0.738-1.863-0.902c-0.664-0.172-1.373-0.244-2.08-0.303
	c-0.711-0.045-1.416-0.153-2.146-0.024c-0.729,0.11-1.49,0.136-2.178-0.183c-0.33-0.148-0.732-0.336-1.01-0.474
	c-0.072-0.041-0.152-0.067-0.229-0.102l-0.141-0.06l-0.117-0.057l-0.461-0.232c-1.211-0.64-2.277-1.378-3.297-2.058
	c-0.51-0.339-1.008-0.668-1.498-0.942c-0.469-0.27-1.025-0.504-1.34-0.506l-0.41,0.029c-0.158,0.008-0.324,0.032-0.469,0.02
	c-0.299-0.01-0.598-0.014-0.875-0.052c-0.57-0.052-1.105-0.143-1.627-0.231c-1.045-0.182-2.02-0.39-2.949-0.576
	c-3.699-0.776-6.621-1.169-8.623-1.32c-0.994-0.067-1.752-0.107-2.283-0.108c-0.523-0.011-0.987-0.042-0.987-0.042L3.417,91.012z"/>
<path fill="#333333" d="M125.538,36.507c0.123-0.065,0.51-0.357,0.424-0.486c-0.086-0.128-0.197-0.918-0.332-0.845
	C125.497,35.251,124.89,36.843,125.538,36.507z M126.907,32.122c0.148,0.099,1.115-0.67,1.305-0.894
	c0.186-0.224,1.65-3.826,1.428-3.901c-0.227-0.073-2.486,2.037-2.732,2.162C126.659,29.614,126.284,31.707,126.907,32.122z
	 M202.45,74.867c0-0.002,0-0.002,0-0.002l0,0c-0.35-2.551-1.016-5.108-2.043-7.551c-0.029-0.084-0.066-0.174-0.117-0.274
	c-0.703-1.393-1.51-2.53-2.582-2.713c-1.762-0.302-2.645,0.647-3.137,1.585c-0.488-0.758-1.988-1.445-3.361-1.337
	c-0.85,0.067-1.662,0.573-2.182,1.33c-0.947-0.793-2.646-0.939-4.023-0.68c-0.41,0.077-0.781,0.17-1.119,0.277
	c-0.24-0.061-0.467-0.081-0.625-0.048c-0.414,0.085-0.854,0.423-1.09,0.897c-0.842,0.643-1.182,1.437-1.182,2.21
	c-2.135,1.144-3.502,1.275-4.707,0.963c-0.48-0.124-1.113-0.877-1.084-2.045c0.02-0.77,0.133-1.101,0.047-1.151
	c-0.234-0.134-1.109,0.038-1.439,0.096c-1.186,0.213-4.871,1.044-7.596,1.739c-1.564-0.463-3.379-0.908-4.012-1.109
	c0.883-0.695,0.609-1.789,0.156-1.862c-0.385-0.062-1.256,0.019-1.92,0.496c-0.662,0.478-1.215,0.979-0.113,1.696
	c0,0.001,0.002,0.001,0.002,0.001c-0.002,0-0.002,0-0.004,0c-1.48,1.113-4.424,1.495-5.572,1.184
	c-0.994-0.27-1.732-1.403-1.365-2.534c0.143-0.442,0.178-0.696-0.588-0.075c-4.547,3.695-6.59,2.918-7.482,2.687
	c-0.895-0.233-0.93-2.028-0.619-3.343c0.213-0.542,0.119-0.729-0.512-0.028c-2.707,3.014-4.664,2.836-5.574,2.341
	c-0.512-0.278-1.156-1.105-0.871-2.858c1.656-13.003,12.764-23.055,26.217-23.055c13.145,0,24.047,9.595,26.088,22.163
	c-2.057-13.465-13.688-23.78-27.727-23.78c-14.238,0-25.996,10.611-27.807,24.356c-0.002,0.014-0.004,0.025-0.006,0.039
	c-0.395,2.635,0.143,5.379-0.393,5.402c-0.57,0.025-1-2.115-1.182-3.202c0,0-0.047-0.267-0.135-0.767
	c-0.047-0.25-0.102-0.558-0.166-0.921c-0.027-0.179-0.072-0.381-0.096-0.577c-0.029-0.2-0.057-0.411-0.086-0.634
	c-0.057-0.448-0.133-0.938-0.191-1.484c-0.053-0.551-0.105-1.147-0.164-1.784c-0.047-0.639-0.068-1.319-0.104-2.038
	c-0.004-0.09-0.008-0.179-0.014-0.27l-0.002-0.035c0,0.054,0,0.004,0,0.012v-0.018v-0.071l-0.002-0.142
	c0-0.189-0.002-0.381-0.002-0.577c-0.006-0.388-0.006-0.787-0.008-1.192c0.014-0.388,0.025-0.786,0.039-1.189
	c0.008-0.203,0.014-0.407,0.02-0.613c0.01-0.208,0.027-0.418,0.043-0.63c0.029-0.425,0.061-0.858,0.09-1.296
	c0.047-0.438,0.096-0.883,0.145-1.332c0.213-1.799,0.518-3.695,0.988-5.623c0.459-1.929,1.043-3.9,1.77-5.86
	c0.734-1.956,1.604-3.9,2.596-5.785c0.994-1.884,2.098-3.714,3.311-5.433s2.514-3.337,3.859-4.832c1.34-1.5,2.742-2.85,4.127-4.071
	c0.176-0.152,0.348-0.303,0.521-0.454c0.17-0.15,0.34-0.299,0.518-0.438c0.348-0.283,0.691-0.562,1.029-0.835
	c0.338-0.275,0.686-0.523,1.02-0.778c0.336-0.252,0.662-0.505,0.996-0.731c0.332-0.232,0.656-0.458,0.977-0.679
	c0.156-0.113,0.318-0.217,0.477-0.318c0.158-0.102,0.314-0.204,0.471-0.304c0.309-0.198,0.611-0.396,0.91-0.579
	c0.299-0.178,0.592-0.351,0.875-0.519c0.283-0.164,0.555-0.336,0.826-0.48c0.27-0.146,0.529-0.288,0.781-0.423
	c0.25-0.136,0.492-0.266,0.721-0.39c0.234-0.117,0.457-0.228,0.67-0.332c0.426-0.208,0.799-0.404,1.135-0.556
	s0.623-0.28,0.854-0.383c0.463-0.209,0.711-0.321,0.711-0.321s-0.254,0.1-0.727,0.284c-0.238,0.092-0.527,0.206-0.873,0.341
	c-0.342,0.134-0.727,0.312-1.162,0.499c-0.219,0.095-0.447,0.194-0.688,0.299c-0.238,0.113-0.486,0.231-0.746,0.354
	c-0.258,0.124-0.527,0.252-0.805,0.386c-0.279,0.131-0.559,0.29-0.852,0.441c-0.295,0.153-0.598,0.313-0.908,0.476
	c-0.309,0.17-0.621,0.354-0.943,0.539c-0.164,0.092-0.326,0.186-0.49,0.281c-0.168,0.094-0.332,0.19-0.498,0.296
	c-0.334,0.207-0.672,0.418-1.02,0.635c-0.348,0.21-0.689,0.45-1.043,0.687c-0.35,0.242-0.717,0.475-1.07,0.736
	c-0.357,0.261-0.719,0.525-1.086,0.794c-0.186,0.132-0.369,0.274-0.549,0.418c-0.18,0.144-0.363,0.288-0.547,0.433
	c-1.469,1.169-2.969,2.471-4.41,3.933c-1.449,1.455-2.865,3.045-4.199,4.747c-1.336,1.702-2.568,3.531-3.693,5.426
	c-1.123,1.896-2.127,3.867-2.994,5.864c-0.855,2.002-1.572,4.028-2.154,6.024c-0.596,1.994-1.012,3.967-1.334,5.851
	c-0.076,0.472-0.15,0.938-0.223,1.396c-0.055,0.461-0.111,0.916-0.166,1.362c-0.027,0.226-0.057,0.444-0.076,0.666
	c-0.02,0.224-0.037,0.446-0.057,0.665c-0.037,0.439-0.07,0.871-0.105,1.293c-0.018,0.406-0.035,0.803-0.053,1.192
	c-0.01,0.194-0.02,0.387-0.027,0.576l-0.006,0.142l-0.004,0.07v0.102c-0.002,0.096-0.002,0.192-0.002,0.287
	c0.002,0.763-0.014,1.487,0.002,2.167c0.027,0.682,0.055,1.318,0.078,1.907c0.033,0.592,0.092,1.143,0.129,1.638
	c0.023,0.247,0.041,0.482,0.061,0.703c0.016,0.224,0.049,0.41,0.07,0.595c0.047,0.365,0.086,0.676,0.117,0.929
	c0.037,0.281,0.063,0.485,0.078,0.615c0.004,0.05,0.008,0.102,0.021,0.157c0.334,1.551,0.408,1.885,0.168,2.078
	c-0.422,0.339-1.068-0.355-2.004-1.356c-4.654-5.594-4.543-13.146-4.461-19.62c-1.621,5.972-1.537,13.487,1.266,20.161
	c0.031,0.09,0.07,0.188,0.123,0.296c0.691,1.393,1.482,2.529,2.537,2.713c1.727,0.304,2.596-0.646,3.08-1.584
	c0.479,0.758,1.953,1.446,3.301,1.338c0.93-0.075,1.814-0.694,2.303-1.602c0.301,0.283,0.666,0.515,1.1,0.679
	c1.992,0.746,4.156-0.688,5.494-1.833c0.039,1.135,0.473,2.766,2.551,2.861c2.219,0.101,4.773-1.649,6.541-3.176
	c0.047,0.834,0.529,2.055,2.074,2.172c1.91,0.147,4.158-0.602,7.621-2.559c1.074,0.37,2.563,0.578,3.625,0.759
	c-0.828,0.229-1.438,0.418-1.643,0.533c-0.664,0.365-1.119,0.756-0.975,1.093c0.059,0.134,1.258,2.86,4.217,1.93
	c2.959-0.933,2.764-2.296,2.355-2.904c-0.109-0.164-0.555-0.366-1.162-0.584c2.014-0.609,4.455-1.222,6.338-1.383
	c-0.664,1.413-0.287,3.649,1.26,4.296c1.482,0.62,4.393-0.962,5.98-2.003c0.496,1.01,2.297,1.473,3.848,1.473
	c0.475,0,0.961-0.063,1.441-0.189c0.139-0.037,0.273-0.077,0.404-0.123c-0.023,0.221-0.053,0.496-0.09,0.842
	c-1.66,13.003-12.766,23.054-26.221,23.054c-13.143,0-24.045-9.596-26.086-22.164c2.055,13.466,13.688,23.78,27.725,23.78
	c14.35,0,26.18-10.772,27.848-24.67c0.248-2.654-0.031-5.595,0.51-5.655c0.67-0.074,1.203,2.646,1.391,3.732
	c0,0,0.049,0.266,0.135,0.767c0.047,0.249,0.102,0.558,0.166,0.92c0.031,0.18,0.072,0.382,0.096,0.578
	c0.027,0.2,0.057,0.41,0.086,0.634c0.059,0.448,0.135,0.937,0.191,1.484c0.049,0.551,0.105,1.147,0.164,1.783
	c0.047,0.64,0.064,1.32,0.104,2.039c0.004,0.09,0.012,0.179,0.014,0.27l0.002,0.035c0-0.053,0-0.005,0-0.012v0.018l0.002,0.07v0.143
	c0,0.189,0.002,0.381,0.006,0.576c0,0.389,0.004,0.785,0.004,1.192c-0.014,0.39-0.027,0.784-0.039,1.188
	c-0.008,0.203-0.014,0.408-0.02,0.613c-0.01,0.207-0.027,0.419-0.041,0.631c-0.029,0.426-0.061,0.857-0.092,1.295
	c-0.049,0.438-0.096,0.884-0.145,1.334c-0.217,1.8-0.518,3.693-0.988,5.623c-0.459,1.928-1.045,3.899-1.77,5.859
	c-0.734,1.957-1.604,3.9-2.596,5.785c-0.994,1.883-2.098,3.715-3.311,5.434c-1.211,1.719-2.514,3.337-3.859,4.83
	c-1.336,1.5-2.742,2.852-4.127,4.072c-0.176,0.152-0.348,0.303-0.52,0.454c-0.17,0.149-0.342,0.3-0.518,0.438
	c-0.35,0.282-0.693,0.561-1.031,0.835c-0.336,0.276-0.686,0.523-1.02,0.778c-0.338,0.252-0.662,0.506-0.996,0.73
	c-0.332,0.231-0.656,0.458-0.977,0.68c-0.156,0.113-0.318,0.217-0.477,0.317c-0.16,0.103-0.316,0.204-0.471,0.302
	c-0.313,0.199-0.611,0.398-0.908,0.581c-0.301,0.178-0.596,0.351-0.877,0.519c-0.285,0.164-0.555,0.337-0.826,0.48
	c-0.27,0.146-0.531,0.288-0.781,0.424s-0.492,0.267-0.723,0.39c-0.232,0.116-0.455,0.228-0.67,0.332
	c-0.424,0.208-0.797,0.403-1.133,0.556s-0.623,0.28-0.854,0.383c-0.463,0.21-0.709,0.321-0.709,0.321s0.252-0.1,0.725-0.284
	c0.236-0.093,0.527-0.206,0.871-0.342c0.344-0.134,0.727-0.311,1.164-0.498c0.219-0.096,0.447-0.193,0.689-0.298
	c0.236-0.113,0.484-0.233,0.742-0.354c0.26-0.125,0.527-0.254,0.807-0.388c0.281-0.13,0.559-0.288,0.854-0.44
	c0.293-0.153,0.596-0.313,0.906-0.477c0.309-0.17,0.621-0.354,0.943-0.538c0.164-0.093,0.326-0.187,0.492-0.28
	c0.164-0.095,0.332-0.191,0.496-0.297c0.334-0.207,0.67-0.418,1.02-0.635c0.348-0.211,0.689-0.45,1.043-0.688
	c0.35-0.241,0.717-0.474,1.07-0.735c0.357-0.26,0.719-0.523,1.086-0.793c0.186-0.133,0.365-0.275,0.547-0.418
	c0.184-0.145,0.365-0.289,0.549-0.433c1.469-1.171,2.969-2.472,4.412-3.934c1.447-1.455,2.863-3.045,4.199-4.747
	c1.332-1.703,2.568-3.529,3.691-5.426s2.125-3.867,2.996-5.865c0.854-2.002,1.57-4.028,2.152-6.025
	c0.596-1.992,1.014-3.966,1.334-5.85c0.076-0.472,0.15-0.938,0.223-1.396c0.055-0.461,0.111-0.916,0.166-1.363
	c0.025-0.223,0.059-0.442,0.078-0.664c0.018-0.225,0.035-0.446,0.055-0.665c0.037-0.44,0.07-0.872,0.105-1.294
	c0.016-0.406,0.035-0.805,0.053-1.191c0.008-0.195,0.02-0.388,0.025-0.576l0.006-0.143l0.004-0.07l0.004-0.102
	c0-0.096,0-0.191,0-0.287c0-0.762,0.012-1.486-0.004-2.166c-0.027-0.681-0.053-1.318-0.076-1.907
	c-0.033-0.592-0.092-1.143-0.131-1.638c-0.021-0.247-0.039-0.482-0.059-0.703c-0.018-0.224-0.051-0.41-0.07-0.595
	c-0.045-0.365-0.086-0.676-0.117-0.929c-0.035-0.278-0.061-0.481-0.078-0.61c-0.002-0.052-0.008-0.106-0.021-0.163
	c-0.34-1.55-0.502-2.345-0.266-2.545c0.496-0.425,1.219,0.312,2.174,1.314c3.463,4.284,4.152,9.31,4.354,14.31
	c0.01,0.215,0.018,0.432,0.025,0.648c0,0.012,0,0.023,0,0.033c0.051,2-0.035,4.134-0.254,6.311
	c-0.156,0.719-0.785,2.678-1.193,3.014c-0.299,0.244-0.123,2.828,0.033,4.071c-0.238,1.03-0.553,1.772-0.846,2.764
	c-0.123,0.198-0.625,0.717-0.539,0.845c0.018,0.027,0.102,0.672,0.018,1.094c-0.164,0.836-0.605,1.805-0.85,2.396
	c-0.09,0.182-1.201,1.037-1.385,1.257c-0.189,0.224-1.65,3.825-1.43,3.899c0.225,0.076,2.486-2.037,2.732-2.16
	c0.172-0.086,0.379-2.61,0.672-3.298c0.291-0.688,0.164-0.746,0.438-1.509c0.18-0.473,0.309-0.668,0.309-0.668
	c0.119-0.143,0.082-0.765,0.172-1.176c0.297-0.897,0.582-1.834,0.85-2.803c0-0.002,0-0.002,0-0.004
	c0.273-1.027,0.984-2.747,1.08-4.592c0,0,0-0.002,0-0.003c0.766-3.865,1.23-7.993,1.252-11.952
	C202.788,78.529,202.7,76.699,202.45,74.867z M164.919,70.506c-0.434,0.044-1.131-0.335-1.094-0.534
	c0.016-0.077,0.982-0.466,2.385-0.932C166.481,69.622,165.312,70.466,164.919,70.506z M185.81,69.417c-1.297,0-2.172-0.41-2.4-0.884
	c-0.057-0.124-0.074-0.26-0.055-0.406c0.982-0.633,1.387-0.95,1.645-1.433c0.041-0.078,0.063-0.155,0.064-0.229
	c0.035-0.014,0.072-0.029,0.109-0.043c0.408-0.146,0.656-0.197,1.068-0.197c0.869,0.023,1.672,0.385,1.887,1.212
	C188.421,68.555,186.22,69.417,185.81,69.417z M123.62,46.146c0.398-0.107,1.498-1.531,1.908-1.867s-0.521-4.917-0.822-5.175
	c-0.303-0.256-1.785,1.301-1.307,3.083C123.882,43.969,123.216,46.255,123.62,46.146z M175.083,65.452
	c0.514,0.048,2.082-0.757,2.207-0.879c0.123-0.123,0.555-0.636-0.412-0.859C175.909,63.49,174.737,65.418,175.083,65.452z"/>
<line fill="none" stroke="#333333" stroke-width="2" stroke-miterlimit="10" x1="0" y1="88" x2="17.282" y2="88"/>
<line fill="none" stroke="#333333" stroke-miterlimit="10" x1="0" y1="91.5" x2="4.636" y2="91.5"/>
<line fill="none" stroke="#333333" stroke-width="2" stroke-miterlimit="10" x1="238.866" y1="88.013" x2="247" y2="88.013"/>
<line fill="none" stroke="#333333" stroke-miterlimit="10" x1="243.626" y1="91.513" x2="247" y2="91.513"/>
<path fill="#333333" d="M16.577,87c0,0,0.807,0.005,2.324,0.015c1.506,0.021,3.717,0.052,6.531,0.091
	c1.4,0.008,2.949,0.008,4.617-0.056c1.658-0.075,3.484-0.173,5.242-0.596c0.43-0.109,0.855-0.243,1.223-0.415
	c0.344-0.156,0.703-0.409,1.059-0.709c0.721-0.609,1.432-1.365,2.115-2.172c0.68-0.813,1.359-1.677,1.979-2.596
	c0.309-0.459,0.609-0.933,0.861-1.404c0.123-0.232,0.242-0.476,0.311-0.67c0.031-0.082,0.053-0.198,0.047-0.145l0.002-0.409
	c-0.008-0.6-0.014-1.205-0.021-1.817c0.004-0.639,0-1.279,0.072-1.961c0.02-0.193,0.014-0.28,0.057-0.561l0.027-0.128l0.07-0.226
	c0.053-0.133,0.096-0.224,0.148-0.324c0.209-0.379,0.449-0.666,0.699-0.93c0.5-0.522,1.037-0.95,1.602-1.346
	c0.566-0.392,1.158-0.747,1.787-1.056c0.635-0.304,1.287-0.59,2.07-0.706c0.389-0.058,0.871-0.059,1.305,0.148
	c0.439,0.2,0.752,0.562,0.945,0.909c0.383,0.712,0.521,1.416,0.67,2.099c0.08,0.338,0.156,0.675,0.25,0.982l0.074,0.219l0.021,0.051
	c0.01,0.024-0.02-0.036,0.01,0.017l0.066,0.113c0.094,0.165,0.164,0.217,0.27,0.341c0.457,0.468,1.004,0.909,1.555,1.337
	c1.107,0.875,2.225,1.725,3.363,2.725c0.316,0.242,0.605,0.734,0.732,1.055c0.162,0.35,0.293,0.694,0.43,1.035
	c0.268,0.661,0.537,1.395,0.885,1.859c0.984,1.094,1.891,2.34,2.783,3.572c0.434,0.626,0.887,1.307,1.17,2.055
	c0.285,0.713,0.57,1.429,0.857,2.146c0.586,1.412,1.293,2.795,2.045,4.074c0.391,0.627,0.797,1.242,1.213,1.692
	c0.195,0.226,0.416,0.392,0.521,0.421l0.994,0.363c1.434,0.552,2.818,1.292,4.266,1.553c0.357,0.052,0.717,0.094,1.064,0.078
	c0.357-0.013,0.65-0.057,1.078-0.135c0.404-0.084,0.834-0.153,1.283-0.188c0.451-0.046,0.93-0.063,1.441,0.033
	c0.254,0.044,0.516,0.125,0.773,0.23c0.301,0.172,0.367,0.215,0.58,0.356l0.566,0.411l0.49,0.391
	c0.646,0.52,1.258,1.055,1.865,1.598c1.211,1.088,2.375,2.221,3.537,3.361c1.16,1.143,2.324,2.291,3.443,3.502
	s2.201,2.477,3.119,3.953c0.238,0.35,0.445,0.772,0.652,1.168l0.076,0.15c-0.008-0.02,0.055,0.11,0.057,0.123l0.027,0.07
	c0.029,0.059,0.09,0.283,0.125,0.428c0.055,0.273,0.064,0.531,0.061,0.774c-0.066,0.963-0.041,1.765,0.041,2.57l0.23,2.255
	c0.096,0.689,0.211,1.303,0.488,1.548c0.104,0.12,0.445,0.347,0.746,0.491c0.318,0.154,0.66,0.299,1.025,0.402
	c0.73,0.201,1.52,0.26,2.268,0.438c1.484,0.424,2.986,0.841,4.504,1.224c0.764,0.199,1.514,0.385,2.313,0.613l0.156,0.047
	l0.217,0.072l0.273,0.104c0.174,0.063,0.451,0.201,0.668,0.303c0.408,0.211,0.764,0.418,1.115,0.636
	c1.387,0.865,2.629,1.765,3.885,2.587c1.238,0.805,2.52,1.604,3.67,1.944c1.166,0.358,2.32,0.192,3.844-0.099
	c0.395-0.063,0.809-0.131,1.299-0.141c0.494-0.005,1.049,0.061,1.621,0.306l0.25,0.116l0.314,0.166
	c0.221,0.118,0.367,0.217,0.549,0.328c0.334,0.217,0.656,0.438,0.955,0.657c0.605,0.437,1.174,0.872,1.715,1.228
	c0.262,0.168,0.539,0.335,0.723,0.404c0.066,0.037,0.184,0.035,0.047,0.046l0.252-0.013l0.152-0.02
	c1.242-0.197,2.639-0.637,4.131-0.838c0.381-0.051,0.777-0.09,1.248-0.064c0.203,0.006,0.537,0.044,0.887,0.203
	c0.299,0.136,0.533,0.318,0.719,0.493c0.695,0.712,0.951,1.302,1.305,1.691c0.346,0.394,0.572,0.515,0.951,0.542
	c0.361,0.027,0.764-0.11,1.191-0.42c0.867-0.633,1.662-1.631,2.451-2.591c0.398-0.487,0.801-0.981,1.246-1.466
	c0.457-0.477,0.918-0.973,1.656-1.358c1.381-0.569,2.576-0.644,3.756-0.778c1.178-0.108,2.316-0.157,3.42-0.201
	c2.178-0.021,4.16-0.393,6.068-0.796c0.939-0.21,1.852-0.437,2.686-0.722c0.844-0.285,1.689-0.608,2.475-0.898
	c1.58-0.596,3.016-1.174,4.295-1.74c2.561-1.127,4.475-2.217,5.725-3.031c0.619-0.418,1.09-0.744,1.389-0.986
	c0.307-0.234,0.465-0.355,0.465-0.355l0.293,0.344c0,0-0.156,0.131-0.459,0.385c-0.295,0.262-0.762,0.615-1.373,1.07
	c-1.238,0.889-3.133,2.084-5.678,3.344c-1.27,0.63-2.695,1.291-4.277,1.936c-0.797,0.325-1.592,0.654-2.473,0.99
	c-0.889,0.342-1.814,0.607-2.779,0.861c-1.908,0.486-4.041,0.954-6.268,1.066c-1.096,0.088-2.209,0.181-3.328,0.33
	c-1.1,0.15-2.297,0.346-3.139,0.734c-0.334,0.184-0.736,0.586-1.104,1.013c-0.375,0.437-0.742,0.921-1.121,1.421
	c-0.775,0.994-1.521,2.08-2.725,3.044c-0.602,0.472-1.461,0.912-2.439,0.886c-0.467-0.006-0.984-0.119-1.426-0.354
	c-0.447-0.231-0.799-0.552-1.078-0.861c-0.541-0.613-0.908-1.26-1.193-1.502c-0.064-0.057-0.109-0.08-0.123-0.084
	c0.039,0.017,0.027-0.006-0.113-0.003c-0.215-0.007-0.51,0.02-0.811,0.071c-1.25,0.195-2.529,0.642-4.084,0.939l-0.377,0.051
	l-0.279,0.021c-0.494-0.007-0.725-0.092-0.992-0.18c-0.486-0.182-0.824-0.393-1.174-0.6c-0.67-0.417-1.26-0.849-1.842-1.246
	c-0.291-0.201-0.576-0.386-0.857-0.56c-0.133-0.075-0.295-0.175-0.398-0.224l-0.172-0.09l-0.252-0.109
	c-0.209-0.094-0.75-0.08-1.438,0.068c-0.689,0.133-1.486,0.33-2.357,0.379c-0.436,0.023-0.883,0.029-1.332-0.021
	c-0.395-0.023-1.045-0.158-1.336-0.252c-1.754-0.527-3.068-1.402-4.406-2.236c-1.314-0.847-2.584-1.745-3.84-2.512
	c-0.311-0.189-0.631-0.368-0.916-0.514c-0.137-0.057-0.201-0.111-0.395-0.18l-0.275-0.102c-0.082-0.029,0.037,0.01,0.002,0
	l-0.063-0.019l-0.125-0.036c-0.703-0.196-1.475-0.381-2.234-0.571c-1.525-0.386-3.08-0.756-4.631-1.249
	c-0.766-0.286-1.486-0.718-2.238-1.093l-1.164-0.548c-0.41-0.209-0.775-0.371-1.281-0.766c-0.156-0.131-0.219-0.197-0.287-0.263
	c-0.127-0.138-0.115-0.138-0.178-0.214c-0.047-0.059-0.092-0.119-0.129-0.178c-0.17-0.24-0.285-0.479-0.393-0.719
	c-0.207-0.473-0.318-0.938-0.398-1.381c-0.184-0.887-0.146-1.729-0.133-2.533c0.018-0.795,0.006-1.604-0.318-2.227l-0.387-0.735
	c-0.182-0.308-0.299-0.626-0.514-0.942c-0.764-1.264-1.656-2.555-2.617-3.799c-0.963-1.244-1.965-2.479-3.043-3.644
	c-1.082-1.161-2.217-2.276-3.371-3.353c-0.578-0.535-1.162-1.065-1.756-1.559l-0.441-0.363l-0.396-0.307
	c-0.371-0.242-0.504-0.359-0.775-0.466c-0.264-0.106-0.59-0.16-0.934-0.187c-0.346-0.003-0.707,0.03-1.086,0.08
	c-0.354,0.063-0.85,0.145-1.285,0.154c-0.445,0.008-0.881-0.01-1.309-0.048c-1.699-0.163-3.322-0.452-4.848-0.937
	c-0.189-0.06-0.379-0.135-0.563-0.199l-0.275-0.102l-0.139-0.051l-0.232-0.107c-0.604-0.311-0.955-0.709-1.256-1.082
	c-0.566-0.767-0.904-1.533-1.186-2.305c-0.578-1.528-0.902-3.063-1.342-4.535c-0.227-0.732-0.445-1.465-0.719-2.155
	c-0.242-0.683-0.617-1.288-1.021-1.912c-0.844-1.233-1.76-2.371-2.789-3.455c-0.557-0.716-0.787-1.399-1.1-2.078l-0.436-0.983
	c-0.166-0.346-0.242-0.504-0.504-0.719c-1.055-0.906-2.25-1.766-3.301-2.734c-0.527-0.492-1.049-0.979-1.533-1.551
	c-0.113-0.147-0.289-0.353-0.359-0.495L51.962,73.7c0.004,0.015-0.045-0.083-0.049-0.1l-0.029-0.071l-0.092-0.275
	c-0.105-0.359-0.176-0.703-0.256-1.037c-0.17-0.655-0.348-1.316-0.688-1.772c-0.338-0.472-0.711-0.535-1.232-0.396
	c-1.098,0.319-2.229,1.038-3.174,1.795c-0.475,0.386-0.92,0.803-1.275,1.233c-0.174,0.214-0.326,0.435-0.414,0.617
	c-0.018,0.04-0.039,0.095-0.043,0.109c0.002,0.001,0.002,0-0.002,0l-0.018,0.104l-0.01,0.38c-0.033,0.571,0,1.175,0.027,1.768
	c0.037,0.619,0.076,1.232,0.113,1.839l0.021,0.493c-0.016,0.356-0.086,0.529-0.143,0.731c-0.125,0.369-0.268,0.663-0.416,0.955
	c-0.295,0.576-0.613,1.095-0.941,1.6c-0.66,1.005-1.348,1.941-2.084,2.812c-0.74,0.87-1.498,1.687-2.369,2.423
	c-0.443,0.368-0.924,0.723-1.5,0.99c-0.551,0.256-1.084,0.414-1.602,0.547c-2.066,0.485-3.934,0.561-5.66,0.641
	c-1.725,0.061-3.295,0.057-4.711,0.045c-2.818-0.047-5.033-0.084-6.543-0.108C17.372,89.007,16.571,89,16.571,89L16.577,87z"/>
<path fill="#333333" d="M239.165,89.013c0,0-1-0.023-2.75-0.063c-1.752-0.021-4.252-0.038-7.252-0.007
	c-1.5-0.013-3.125,0.054-4.844,0.18l-0.648,0.038l-0.328,0.019l-0.416-0.003l-0.666-0.018c-0.113-0.006-0.217-0.004-0.34-0.016
	l-0.416-0.077c-1.18-0.122-2.086-0.733-2.861-1.376c-0.789-0.607-1.547-1.02-2.258-1.117c-0.924-0.114-1.787-0.084-2.793-0.081
	c-0.492-0.001-0.994,0.026-1.541-0.021c-0.262-0.012-0.551-0.039-0.861-0.1c-0.143-0.02-0.303-0.053-0.502-0.127l-0.275-0.098
	l-0.137-0.053c-0.119-0.078,0.223,0.155-0.277-0.178l-0.018-0.016l-0.035-0.031l-0.07-0.063c-0.018-0.018-0.039-0.033-0.119-0.131
	c-0.127-0.154-0.242-0.336-0.324-0.523c-0.104-0.231-0.078-0.238-0.113-0.355l-0.061-0.277c-0.049-0.324-0.053-0.628-0.043-0.9
	c0.033-0.557,0.102-1.066,0.176-1.569c0.16-0.999,0.186-1.987,0.113-2.896c-0.031-0.45-0.119-0.896-0.258-1.164l-0.037-0.086
	l-0.109-0.149l-0.219-0.3c-0.148-0.185-0.273-0.307-0.422-0.469c-0.32-0.32-0.688-0.575-1.115-1.009
	c-0.197-0.208-0.459-0.563-0.482-0.946c-0.014-0.111-0.029-0.154-0.029-0.32l0.023-0.18l0.047-0.36
	c0.123-0.952,0.359-1.977,0.592-2.873c0.107-0.46,0.244-0.918,0.391-1.371l0.105-0.338c0.057-0.185,0.094-0.224,0.156-0.354
	c0.16-0.271,0.316-0.456,0.48-0.631c0.652-0.697,1.352-1.234,1.947-1.822c0.285-0.283,0.584-0.61,0.66-0.88
	c0.07-0.348,0.098-0.798,0.131-1.177c0.057-0.799,0.064-1.575,0.051-2.317c-0.031-0.74-0.092-1.451-0.266-2.09
	c-0.211-0.638-0.48-1.227-0.715-1.79c-0.482-1.12-0.885-2.108-1.162-2.941c-0.277-0.833-0.418-1.514-0.443-1.985
	c0.006-0.236,0.002-0.416,0.039-0.534c0.023-0.119,0.037-0.18,0.037-0.18s-0.012,0.062-0.031,0.181
	c-0.031,0.118-0.021,0.298-0.018,0.531c0.039,0.466,0.203,1.137,0.51,1.954c0.305,0.818,0.738,1.786,1.26,2.887
	c0.254,0.552,0.545,1.136,0.789,1.788c0.221,0.674,0.316,1.4,0.387,2.156c0.053,0.756,0.084,1.544,0.066,2.361
	c-0.018,0.427-0.012,0.804-0.082,1.277c-0.145,0.546-0.469,0.855-0.76,1.194c-0.598,0.651-1.277,1.23-1.822,1.886
	c-0.137,0.16-0.252,0.342-0.322,0.463c-0.033,0.075-0.111,0.239-0.105,0.278l-0.078,0.326c-0.109,0.432-0.211,0.872-0.289,1.333
	c-0.174,0.932-0.326,1.78-0.393,2.748c-0.041,0.622-0.057,0.625,0.195,0.883c0.271,0.246,0.723,0.545,1.127,0.893
	c0.199,0.184,0.432,0.404,0.602,0.598l0.238,0.284l0.119,0.143c0.086,0.103,0.1,0.153,0.15,0.233
	c0.35,0.598,0.449,1.156,0.531,1.689c0.162,1.072,0.127,2.091,0.277,3.09c0.066,0.498,0.125,0.988,0.213,1.43
	c0.029,0.227,0.082,0.42,0.111,0.588l0.029,0.086c0,0.002,0.033,0.124-0.004,0c-0.027-0.074-0.09-0.143-0.162-0.186
	c-0.061-0.037-0.035-0.011-0.006,0.014l0.068,0.063l0.035,0.031l0.018,0.016c-0.488-0.324-0.131-0.088-0.236-0.16l0.041,0.009
	l0.076,0.023c0.033,0.022,0.115,0.042,0.221,0.056c0.176,0.038,0.377,0.079,0.611,0.1c0.475,0.053,0.947,0.104,1.418,0.155
	c0.961,0.094,2.053,0.21,3.031,0.429c1.219,0.244,2.064,0.961,2.896,1.274c0.432,0.153,0.83,0.27,1.213,0.352
	c0.189,0.04,0.367,0.112,0.541,0.171l0.492,0.116l0.244,0.07c0.1,0.017,0.219,0.024,0.328,0.037l0.66,0.074l0.164,0.021l0.082,0.012
	l0.021,0.002c-0.164-0.006-0.033,0-0.064-0.002l0.041,0.003l0.328,0.019l0.648,0.038c1.719,0.126,3.344,0.192,4.844,0.18
	c3,0.031,5.5,0.015,7.252-0.007c1.75-0.04,2.75-0.063,2.75-0.063V89.013z"/>
</svg>
